<svg width="83" height="47" viewBox="0 0 83 47" fill="none" xmlns="http://www.w3.org/2000/svg">
<path opacity="0.24" d="M22.4609 46.128C19.1395 46.128 16.1315 45.5953 13.4369 44.53C10.7422 43.402 8.45485 41.8353 6.57485 39.83C4.69485 37.8247 3.22218 35.4433 2.15685 32.686C1.15418 29.866 0.65285 26.764 0.65285 23.38C0.65285 20.184 1.18552 17.176 2.25085 14.356C3.37885 11.536 4.91418 9.092 6.85685 7.024C8.79952 4.956 11.0869 3.32667 13.7189 2.136C16.4135 0.882665 19.3275 0.255999 22.4609 0.255999C25.5942 0.255999 28.4769 0.851332 31.1089 2.042C33.8035 3.17 36.1222 4.768 38.0649 6.836C40.0075 8.84133 41.5115 11.254 42.5769 14.074C43.7049 16.894 44.2689 19.996 44.2689 23.38C44.2689 26.576 43.7362 29.5527 42.6709 32.31C41.6682 35.0673 40.2269 37.48 38.3469 39.548C36.4669 41.616 34.1795 43.2453 31.4849 44.436C28.7902 45.564 25.7822 46.128 22.4609 46.128ZM9.95885 23.38C9.95885 26.5133 10.2722 29.2393 10.8989 31.558C11.5882 33.814 12.4969 35.7253 13.6249 37.292C14.8155 38.8587 16.1629 40.018 17.6669 40.77C19.2335 41.522 20.8942 41.898 22.6489 41.898C24.2782 41.898 25.8135 41.522 27.2549 40.77C28.7589 40.018 30.0749 38.89 31.2029 37.386C32.3309 35.882 33.2082 33.9707 33.8349 31.652C34.5242 29.3333 34.8689 26.576 34.8689 23.38C34.8689 20.184 34.5242 17.3953 33.8349 15.014C33.2082 12.6327 32.3309 10.69 31.2029 9.186C30.0749 7.61933 28.7589 6.46 27.2549 5.708C25.7509 4.89333 24.1529 4.486 22.4609 4.486C20.7689 4.486 19.1709 4.862 17.6669 5.614C16.1629 6.366 14.8155 7.52533 13.6249 9.092C12.4969 10.596 11.5882 12.5387 10.8989 14.92C10.2722 17.3013 9.95885 20.1213 9.95885 23.38ZM52.5577 11.254C52.4324 11.3793 52.2444 11.536 51.9937 11.724C51.8057 11.8493 51.5864 11.912 51.3357 11.912C50.5837 11.912 49.9257 11.5047 49.3617 10.69C51.8057 7.55667 54.5004 5.05 57.4457 3.17C60.4537 1.22733 63.7124 0.255999 67.2217 0.255999C71.5457 0.255999 74.7731 1.384 76.9037 3.64C79.0971 5.83333 80.1937 8.716 80.1937 12.288C80.1937 14.168 79.8177 16.048 79.0657 17.928C78.3764 19.808 77.1857 21.782 75.4937 23.85C73.8017 25.918 71.5457 28.174 68.7257 30.618C65.9057 33.062 62.3964 35.8193 58.1977 38.89H74.0837C75.3371 38.89 76.3711 38.6393 77.1857 38.138C78.0631 37.574 78.8464 36.4773 79.5357 34.848C79.8491 34.1587 80.3504 33.814 81.0397 33.814C81.2277 33.814 81.5724 33.8767 82.0737 34.002C82.2617 34.0647 82.4497 34.096 82.6377 34.096C82.0737 35.7253 81.5411 37.4173 81.0397 39.172C80.6011 40.9267 80.1937 42.6187 79.8177 44.248C79.6924 44.7493 79.5357 45.0627 79.3477 45.188C79.1597 45.3133 78.8464 45.376 78.4077 45.376C77.2797 45.376 75.8697 45.3133 74.1777 45.188C72.4857 45.0627 70.6371 45 68.6317 45H49.3617V42.744C53.2471 39.4853 56.5371 36.5713 59.2317 34.002C61.9891 31.37 64.2137 28.9573 65.9057 26.764C67.5977 24.508 68.8197 22.4087 69.5717 20.466C70.3864 18.5233 70.7937 16.612 70.7937 14.732C70.7937 12.476 70.2297 10.5333 69.1017 8.904C68.0364 7.212 66.1564 6.366 63.4617 6.366C61.6444 6.366 59.8897 6.742 58.1977 7.494C56.5057 8.246 54.6257 9.49933 52.5577 11.254Z" fill="white"/>
</svg>
