<svg width="253" height="50" viewBox="0 0 253 50" fill="none" xmlns="http://www.w3.org/2000/svg">
<g opacity="0.8">
<path d="M15.2447 49.9556C21.7527 49.9556 25.8537 46.045 27.815 41.3346L27.3246 41.1124C25.0513 45.5118 21.5299 48.2669 16.9386 48.2669C10.8764 48.2669 8.291 42.9788 8.291 33.6912C8.291 25.2036 10.5198 18.7601 16.0917 18.7601C20.0143 18.7601 23.714 22.3596 26.0765 29.914H26.6114L26.4331 18.5379H25.9428L24.6501 20.1821C22.6888 19.16 19.3457 18.1824 15.8688 18.1824C6.68629 18.1824 0 24.8036 0 34.4467C0 44.2231 6.77544 49.9556 15.2447 49.9556Z" fill="white"/>
<path d="M44.9792 50C49.6151 50 53.2702 48.7113 56.0785 46.1783C59.3325 43.2454 61.1155 38.8461 61.1155 33.9134C61.1155 28.8031 59.1542 24.8481 56.1676 22.1374C53.2702 19.5155 49.3476 18.2268 45.1575 18.2268C40.9229 18.2268 37.134 19.6044 34.2812 22.1374C31.1163 24.937 29.155 29.1141 29.155 34.4467C29.155 39.246 30.938 43.1565 33.8354 45.8673C36.7328 48.578 40.7 50 44.9792 50ZM45.1575 49.4667C39.5856 49.4667 37.5352 42.801 37.5352 34.2245C37.5352 24.4481 40.076 18.7601 45.1575 18.7601C51.0415 18.7601 52.7353 26.2257 52.7353 34.0467C52.7353 42.8899 50.6849 49.4667 45.1575 49.4667Z" fill="white"/>
<path d="M62.3322 49.289H74.323V48.9779C73.5206 48.889 70.757 48.8002 69.9992 48.178C68.974 47.3337 68.5282 45.6451 68.5282 42.1789V22.6706L76.5518 42.6233C77.0421 43.8675 78.3793 47.867 78.6468 48.8002H79.8503L90.5484 21.7374V46.2228C90.5484 47.2448 90.1472 47.9558 89.122 48.4891C88.4979 48.8002 86.3137 48.889 85.556 48.9779V49.289H102.495V48.9779C101.558 48.9335 99.7309 48.6669 99.2406 48.4002C98.2599 47.9114 97.9033 47.2004 97.9033 46.2228V21.9152C97.9033 20.9375 98.1708 20.0932 99.2406 19.7377C100.043 19.4711 101.692 19.3378 102.45 19.2489V18.9378H90.2364C90.1918 19.4266 89.9243 21.1597 89.3003 22.7151L82.8814 39.0682L74.7242 18.9378H62.5551V19.2489C63.7141 19.3378 65.4079 19.3378 66.4332 20.1821C67.3247 20.8931 67.7704 22.0929 67.7704 23.9149V42.2233C67.7704 45.6006 67.3692 47.5115 66.344 48.2669C65.3188 49.0224 63.09 48.889 62.3322 48.9779V49.289Z" fill="white"/>
<path d="M104.302 49.289H121.062V48.9779C120.215 48.889 118.343 48.7557 117.808 48.5335C116.828 48.0892 116.471 47.3337 116.471 46.3561V34.0023H119.324C121.642 34.0023 122.622 34.5356 123.246 35.2466C124.361 36.4908 125.163 38.9349 125.52 40.3125H125.966V27.4699H125.52C125.252 28.7142 124.227 31.2916 123.246 32.2692C122.667 32.8469 121.731 33.4691 119.324 33.4691H116.471V19.4711H120.795C122.177 19.4711 123.781 19.5155 124.807 19.8266C127.124 20.5376 129.754 24.9814 130.468 26.9811H130.869V18.9378H104.302V19.2489C105.06 19.3378 106.843 19.3822 107.69 19.6933C108.804 20.1377 109.027 20.8931 109.027 21.8707V46.4005C109.027 47.3782 108.759 48.178 107.69 48.578C107.066 48.8002 105.06 48.889 104.302 48.9779V49.289Z" fill="white"/>
<path d="M148.464 50C153.099 50 156.755 48.7113 159.563 46.1783C162.817 43.2454 164.6 38.8461 164.6 33.9134C164.6 28.8031 162.638 24.8481 159.652 22.1374C156.755 19.5155 152.832 18.2268 148.642 18.2268C144.407 18.2268 140.618 19.6044 137.765 22.1374C134.601 24.937 132.639 29.1141 132.639 34.4467C132.639 39.246 134.422 43.1565 137.32 45.8673C140.217 48.578 144.184 50 148.464 50ZM148.642 49.4667C143.07 49.4667 141.019 42.801 141.019 34.2245C141.019 24.4481 143.56 18.7601 148.642 18.7601C154.526 18.7601 156.22 26.2257 156.22 34.0467C156.22 42.8899 154.169 49.4667 148.642 49.4667Z" fill="white"/>
<path d="M192.562 49.8222C197.822 49.8222 199.07 46.9782 199.07 43.2899V41.9123H198.446V43.2454C198.446 45.6895 197.108 46.9338 196.039 46.9338C195.192 46.9338 194.345 46.2672 194.033 44.8896C193.587 42.801 193.409 41.2013 192.74 38.7572C191.848 35.5576 188.594 34.4023 185.831 34.1801V33.869C190.377 32.9802 194.345 30.7139 194.345 25.8702C194.345 21.0709 189.843 18.9378 182.889 18.9378H166.53V19.2489C167.287 19.3378 169.07 19.4266 169.917 19.7821C171.032 20.2265 171.255 21.0264 171.255 22.004V46.3561C171.255 47.3782 170.987 48.1336 169.917 48.5335C169.383 48.7557 167.332 48.9335 166.53 48.9779V49.289H183.156V48.9779C182.354 48.889 180.571 48.7557 180.036 48.5335C179.055 48.0892 178.699 47.3337 178.699 46.3561V34.5356H180.125C184.092 34.5356 185.162 37.6018 185.742 42.4455C186.41 48.0447 188.639 49.8222 192.562 49.8222ZM178.699 33.9134V19.5155H180.17C184.226 19.5155 186.321 22.1374 186.321 26.6256C186.321 31.8693 183.335 33.9134 179.412 33.9134H178.699Z" fill="white"/>
<path d="M203.28 49.289H220.575V48.9779C219.728 48.889 217.499 48.6669 216.964 48.4447C215.984 48.0003 215.627 47.2004 215.627 46.2228V19.4711H216.83C217.9 19.4711 219.104 19.56 220.04 19.6933C221.957 19.9599 224.809 25.248 225.433 27.2033H225.835V18.9378H197.975V27.2033H198.376C199 25.248 201.942 19.9599 203.814 19.6933C204.751 19.56 205.999 19.4711 207.024 19.4711H208.183V46.3116C208.183 47.2893 207.871 48.1336 206.846 48.5335C206.266 48.7557 204.037 48.9335 203.28 48.9779V49.289Z" fill="white"/>
<path d="M253 13.1096V9.78325H243.923V0H240.292V9.78325H231.214V13.1096H240.292V23.2352H243.923V13.1096H253Z" fill="white"/>
</g>
</svg>
