<svg width="81" height="63" viewBox="0 0 81 63" fill="none" xmlns="http://www.w3.org/2000/svg">
<path opacity="0.24" d="M22.5165 46.128C19.1952 46.128 16.1872 45.5953 13.4925 44.53C10.7978 43.402 8.51051 41.8353 6.63051 39.83C4.75051 37.8247 3.27785 35.4433 2.21251 32.686C1.20985 29.866 0.708514 26.764 0.708514 23.38C0.708514 20.184 1.24118 17.176 2.30651 14.356C3.43451 11.536 4.96985 9.092 6.91251 7.024C8.85518 4.956 11.1425 3.32667 13.7745 2.136C16.4692 0.882665 19.3832 0.255999 22.5165 0.255999C25.6498 0.255999 28.5325 0.851332 31.1645 2.042C33.8592 3.17 36.1778 4.768 38.1205 6.836C40.0632 8.84133 41.5672 11.254 42.6325 14.074C43.7605 16.894 44.3245 19.996 44.3245 23.38C44.3245 26.576 43.7918 29.5527 42.7265 32.31C41.7238 35.0673 40.2825 37.48 38.4025 39.548C36.5225 41.616 34.2352 43.2453 31.5405 44.436C28.8458 45.564 25.8378 46.128 22.5165 46.128ZM10.0145 23.38C10.0145 26.5133 10.3278 29.2393 10.9545 31.558C11.6438 33.814 12.5525 35.7253 13.6805 37.292C14.8712 38.8587 16.2185 40.018 17.7225 40.77C19.2892 41.522 20.9498 41.898 22.7045 41.898C24.3338 41.898 25.8692 41.522 27.3105 40.77C28.8145 40.018 30.1305 38.89 31.2585 37.386C32.3865 35.882 33.2638 33.9707 33.8905 31.652C34.5798 29.3333 34.9245 26.576 34.9245 23.38C34.9245 20.184 34.5798 17.3953 33.8905 15.014C33.2638 12.6327 32.3865 10.69 31.2585 9.186C30.1305 7.61933 28.8145 6.46 27.3105 5.708C25.8065 4.89333 24.2085 4.486 22.5165 4.486C20.8245 4.486 19.2265 4.862 17.7225 5.614C16.2185 6.366 14.8712 7.52533 13.6805 9.092C12.5525 10.596 11.6438 12.5387 10.9545 14.92C10.3278 17.3013 10.0145 20.1213 10.0145 23.38ZM52.9894 28.268C56.3734 26.576 59.1307 25.1033 61.2614 23.85C63.3921 22.5967 65.0527 21.406 66.2434 20.278C67.4967 19.0873 68.3427 17.928 68.7814 16.8C69.2827 15.6093 69.5334 14.2933 69.5334 12.852C69.5334 10.972 69.0007 9.374 67.9354 8.058C66.9327 6.67933 65.0841 5.99 62.3894 5.99C60.5094 5.99 58.7547 6.366 57.1254 7.118C55.4961 7.80733 53.7101 8.87266 51.7674 10.314C51.6421 10.4393 51.4541 10.596 51.2034 10.784C51.0154 10.9093 50.7961 10.972 50.5454 10.972C49.7307 10.972 49.0414 10.5647 48.4774 9.75C51.4227 6.554 54.2741 4.17266 57.0314 2.606C59.7887 1.03933 62.7967 0.255999 66.0554 0.255999C69.7527 0.255999 72.6981 1.07067 74.8914 2.7C77.0847 4.32933 78.1814 6.836 78.1814 10.22C78.1814 11.8493 77.9307 13.2907 77.4294 14.544C76.9281 15.7973 76.2074 16.9567 75.2674 18.022C74.3274 19.0247 73.2307 19.996 71.9774 20.936C70.7241 21.8133 69.3454 22.722 67.8414 23.662V23.85C71.9774 24.79 75.1107 26.4507 77.2414 28.832C79.3721 31.2133 80.4374 34.0333 80.4374 37.292C80.4374 39.8613 79.7167 42.4307 78.2754 45C76.8967 47.632 74.8287 50.076 72.0714 52.332C69.3141 54.588 65.8987 56.5933 61.8254 58.348C57.8147 60.1027 53.1774 61.4187 47.9134 62.296C47.4121 61.6693 47.1614 61.0427 47.1614 60.416C47.1614 59.852 47.4434 59.476 48.0074 59.288C52.5194 57.784 56.2167 56.2173 59.0994 54.588C61.9821 53.0213 64.2381 51.392 65.8674 49.7C67.5594 48.0707 68.7187 46.3787 69.3454 44.624C69.9721 42.8067 70.2854 40.958 70.2854 39.078C70.2854 36.07 69.4707 33.72 67.8414 32.028C66.2747 30.2733 64.0501 29.396 61.1674 29.396C59.9767 29.396 58.6921 29.5527 57.3134 29.866C55.9347 30.1167 54.4934 30.5867 52.9894 31.276V28.268Z" fill="white"/>
</svg>
