<svg width="222" height="50" viewBox="0 0 222 50" fill="none" xmlns="http://www.w3.org/2000/svg">
<g opacity="0.8">
<path d="M0 49.289H27.1412L27.7206 39.6904H27.3641C26.2053 41.8678 23.5313 46.1339 22.016 47.6448C21.1693 48.4891 19.1192 48.7557 16.8908 48.7557C12.9244 48.7557 12.1668 48.4002 12.1668 44.9341V21.693C12.1668 20.7153 12.4787 19.871 13.5483 19.5155C14.3505 19.2489 15.9104 19.3378 16.7126 19.2489V18.9378H0V19.2489C0.757637 19.3378 2.54031 19.3822 3.38708 19.7377C4.50125 20.1821 4.72409 20.9375 4.72409 21.9152V46.3561C4.72409 47.3337 4.45669 48.1336 3.38708 48.578C2.85228 48.8002 0.757637 48.889 0 48.9779V49.289Z" fill="white"/>
<path d="M28.417 49.289H56.0038L56.5832 40.0014H56.1821C55.2908 41.6456 52.795 45.9117 50.9678 47.6892C49.8982 48.7557 47.447 48.7557 44.9958 48.7557C40.9402 48.7557 40.2717 48.2225 40.2717 44.9785V33.8246H43.1686C45.5306 33.8246 46.4665 34.4467 47.0905 35.1133C47.8481 35.9131 49.096 38.6239 49.2742 40.0014H49.7645V27.3366H49.2742C49.096 28.5364 48.0264 31.0694 47.0905 32.0026C46.5111 32.5803 45.6198 33.2913 43.1686 33.2913H40.2717V19.4711H43.7925C45.1741 19.4711 46.5557 19.56 47.6253 19.6933C49.9873 20.0043 53.1516 24.8481 53.8201 26.8922H54.3103V18.9378H28.417V19.2489C29.5311 19.3378 30.779 19.4711 31.4921 19.6933C32.5617 20.0488 32.8291 20.8931 32.8291 21.8707V46.5338C32.8291 47.5115 32.5617 48.2225 31.4921 48.578C30.9573 48.7557 29.6648 48.889 28.417 48.9779V49.289Z" fill="white"/>
<path d="M58.0017 49.289H74.4469V48.9779C73.4218 48.889 71.8174 48.7557 71.2826 48.578C70.2576 48.2225 69.9456 47.4226 69.9456 46.445V21.8263C69.9456 20.8487 70.213 19.9599 71.2826 19.6488C72.0403 19.4266 73.6892 19.3378 74.4469 19.2489V18.9378H58.0017V19.2489C59.1159 19.3378 60.4529 19.4711 61.1659 19.6933C62.2355 20.0488 62.5029 20.8931 62.5029 21.8707V46.5338C62.5029 47.5115 62.2355 48.2225 61.1659 48.578C60.6311 48.7557 59.2496 48.889 58.0017 48.9779V49.289Z" fill="white"/>
<path d="M88.4746 49.9556C95.4271 49.9556 100.151 45.8673 100.151 40.4458C100.151 35.7354 97.9228 33.4246 94.4466 31.9582C93.0205 31.336 90.4801 30.625 88.6975 30.0029C84.8647 28.6253 83.5277 26.6256 83.5277 24.0038C83.5277 21.293 85.3104 18.7601 88.5638 18.7601C93.3324 18.7601 96.1401 23.4705 98.1456 29.0697H98.5913L98.4131 18.5379H97.8783L96.7195 20.1821C95.2042 19.2489 92.1737 18.1824 88.1627 18.1824C81.4776 18.1824 77.4666 22.3596 77.4666 27.1589C77.4666 30.8917 79.1602 34.1356 82.9483 35.7354C84.3299 36.3131 86.692 37.0241 88.6529 37.6907C91.9509 38.8461 93.8227 40.8458 93.8227 43.4676C93.8227 46.445 92.04 49.4223 87.9398 49.4223C83.2157 49.4223 79.4276 44.4008 77.1992 38.4461H76.7536L77.021 49.6445H77.5558L78.8928 47.6448C80.4972 48.5335 83.3049 49.9556 88.4746 49.9556Z" fill="white"/>
<path d="M119.038 50C125.367 50 130.269 46.3116 130.269 39.1571V26.0479C130.269 22.3596 130.626 20.8931 131.695 20.0932C132.631 19.3822 134.681 19.3378 135.751 19.2489V18.9378H123.896V19.2489C124.654 19.3378 127.239 19.4266 127.952 20.0488C128.932 20.8931 129.512 22.3596 129.512 26.0923V38.9349C129.512 45.0674 125.545 48.2225 120.866 48.2225C116.097 48.2225 113.824 45.6895 113.824 39.6015V21.8263C113.824 20.8487 114.092 20.0043 115.206 19.6488C115.919 19.4266 117.523 19.3378 118.281 19.2489V18.9378H101.969V19.2489C102.638 19.3378 104.198 19.2933 105 19.7377C105.98 20.271 106.337 20.982 106.337 21.9596V39.1571C106.337 45.6451 110.794 50 119.038 50Z" fill="white"/>
<path d="M162.243 49.8222C167.502 49.8222 168.75 46.9782 168.75 43.2899V41.9123H168.126V43.2454C168.126 45.6895 166.789 46.9338 165.719 46.9338C164.873 46.9338 164.026 46.2672 163.714 44.8896C163.268 42.801 163.09 41.2013 162.422 38.7572C161.53 35.5576 158.277 34.4023 155.514 34.1801V33.869C160.059 32.9802 164.026 30.7139 164.026 25.8702C164.026 21.0709 159.525 18.9378 152.572 18.9378H136.216V19.2489C136.974 19.3378 138.757 19.4266 139.603 19.7821C140.717 20.2265 140.94 21.0264 140.94 22.004V46.3561C140.94 47.3782 140.673 48.1336 139.603 48.5335C139.068 48.7557 137.018 48.9335 136.216 48.9779V49.289H152.84V48.9779C152.037 48.889 150.255 48.7557 149.72 48.5335C148.739 48.0892 148.383 47.3337 148.383 46.3561V34.5356H149.809C153.776 34.5356 154.845 37.6018 155.425 42.4455C156.093 48.0447 158.321 49.8222 162.243 49.8222ZM148.383 33.9134V19.5155H149.854C153.909 19.5155 156.004 22.1374 156.004 26.6256C156.004 31.8693 153.018 33.9134 149.096 33.9134H148.383Z" fill="white"/>
<path d="M169.551 49.289H197.138L197.717 40.0014H197.316C196.425 41.6456 193.929 45.9117 192.102 47.6892C191.032 48.7557 188.581 48.7557 186.13 48.7557C182.074 48.7557 181.406 48.2225 181.406 44.9785V33.8246H184.303C186.665 33.8246 187.601 34.4467 188.225 35.1133C188.982 35.9131 190.23 38.6239 190.408 40.0014H190.899V27.3366H190.408C190.23 28.5364 189.161 31.0694 188.225 32.0026C187.645 32.5803 186.754 33.2913 184.303 33.2913H181.406V19.4711H184.927C186.308 19.4711 187.69 19.56 188.76 19.6933C191.122 20.0043 194.286 24.8481 194.954 26.8922H195.445V18.9378H169.551V19.2489C170.665 19.3378 171.913 19.4711 172.626 19.6933C173.696 20.0488 173.963 20.8931 173.963 21.8707V46.5338C173.963 47.5115 173.696 48.2225 172.626 48.578C172.091 48.7557 170.799 48.889 169.551 48.9779V49.289Z" fill="white"/>
<path d="M222 13.1096V9.78325H212.924V0H209.294V9.78325H200.218V13.1096H209.294V23.2352H212.924V13.1096H222Z" fill="white"/>
</g>
</svg>
