<svg width="74" height="47" viewBox="0 0 74 47" fill="none" xmlns="http://www.w3.org/2000/svg">
<path opacity="0.24" d="M22.2992 46.128C18.9778 46.128 15.9698 45.5953 13.2752 44.53C10.5805 43.402 8.29317 41.8353 6.41317 39.83C4.53317 37.8247 3.06051 35.4433 1.99517 32.686C0.992505 29.866 0.491172 26.764 0.491172 23.38C0.491172 20.184 1.02384 17.176 2.08917 14.356C3.21717 11.536 4.75251 9.092 6.69517 7.024C8.63784 4.956 10.9252 3.32667 13.5572 2.136C16.2518 0.882665 19.1658 0.255999 22.2992 0.255999C25.4325 0.255999 28.3152 0.851332 30.9472 2.042C33.6418 3.17 35.9605 4.768 37.9032 6.836C39.8458 8.84133 41.3498 11.254 42.4152 14.074C43.5432 16.894 44.1072 19.996 44.1072 23.38C44.1072 26.576 43.5745 29.5527 42.5092 32.31C41.5065 35.0673 40.0652 37.48 38.1852 39.548C36.3052 41.616 34.0178 43.2453 31.3232 44.436C28.6285 45.564 25.6205 46.128 22.2992 46.128ZM9.79717 23.38C9.79717 26.5133 10.1105 29.2393 10.7372 31.558C11.4265 33.814 12.3352 35.7253 13.4632 37.292C14.6538 38.8587 16.0012 40.018 17.5052 40.77C19.0718 41.522 20.7325 41.898 22.4872 41.898C24.1165 41.898 25.6518 41.522 27.0932 40.77C28.5972 40.018 29.9132 38.89 31.0412 37.386C32.1692 35.882 33.0465 33.9707 33.6732 31.652C34.3625 29.3333 34.7072 26.576 34.7072 23.38C34.7072 20.184 34.3625 17.3953 33.6732 15.014C33.0465 12.6327 32.1692 10.69 31.0412 9.186C29.9132 7.61933 28.5972 6.46 27.0932 5.708C25.5892 4.89333 23.9912 4.486 22.2992 4.486C20.6072 4.486 19.0092 4.862 17.5052 5.614C16.0012 6.366 14.6538 7.52533 13.4632 9.092C12.3352 10.596 11.4265 12.5387 10.7372 14.92C10.1105 17.3013 9.79717 20.1213 9.79717 23.38ZM52.2081 1.102C52.3961 1.102 52.8034 1.13333 53.4301 1.196C54.1194 1.25866 54.9341 1.32133 55.8741 1.384C56.8767 1.44666 57.9421 1.50933 59.0701 1.572C60.1981 1.572 61.3261 1.572 62.4541 1.572C63.5821 1.572 64.7101 1.572 65.8381 1.572C66.9661 1.50933 68.0001 1.44666 68.9401 1.384C69.9427 1.32133 70.7887 1.25866 71.4781 1.196C72.1674 1.13333 72.6061 1.102 72.7941 1.102C72.8567 1.22733 72.8881 1.44666 72.8881 1.76C72.9507 2.07333 72.9821 2.324 72.9821 2.512C72.9821 3.264 72.6687 3.70266 72.0421 3.828C70.4754 4.07866 69.1907 4.486 68.1881 5.05C67.1854 5.55133 66.6841 6.39733 66.6841 7.588V38.796C66.6841 39.9867 67.2794 40.8953 68.4701 41.522C69.6607 42.086 71.0707 42.4933 72.7001 42.744C73.3267 42.8693 73.6401 43.308 73.6401 44.06C73.6401 44.248 73.6087 44.53 73.5461 44.906C73.4834 45.2193 73.4521 45.4073 73.4521 45.47C73.2641 45.47 72.7941 45.4387 72.0421 45.376C71.2901 45.3133 70.3814 45.2507 69.3161 45.188C68.3134 45.1253 67.1854 45.0627 65.9321 45C64.7414 45 63.5821 45 62.4541 45C61.3261 45 60.1667 45 58.9761 45C57.8481 45.0627 56.7827 45.1253 55.7801 45.188C54.7774 45.2507 53.9001 45.3133 53.1481 45.376C52.3961 45.4387 51.9261 45.47 51.7381 45.47C51.7381 45.4073 51.7067 45.2193 51.6441 44.906C51.5814 44.53 51.5501 44.248 51.5501 44.06C51.5501 43.308 51.8634 42.8693 52.4901 42.744C54.1194 42.4307 55.4981 42.0233 56.6261 41.522C57.7541 40.958 58.3181 40.0807 58.3181 38.89V7.588C58.3181 6.39733 57.7854 5.55133 56.7201 5.05C55.7174 4.486 54.4641 4.07866 52.9601 3.828C52.3334 3.70266 52.0201 3.264 52.0201 2.512C52.0201 2.324 52.0201 2.07333 52.0201 1.76C52.0827 1.44666 52.1454 1.22733 52.2081 1.102Z" fill="white"/>
</svg>
