<svg width="209" height="58" viewBox="0 0 209 58" fill="none" xmlns="http://www.w3.org/2000/svg">
<g opacity="0.8">
<path d="M17.1456 50.1547C23.5024 50.1547 28.4267 46.4549 28.4267 39.2783V26.1285C28.4267 22.4287 28.7849 20.9577 29.8593 20.1554C30.7994 19.4422 32.8586 19.3976 33.933 19.3085V18.9964H22.0251V19.3085C22.7862 19.3976 25.3826 19.4868 26.0989 20.1108C27.0837 20.9577 27.6657 22.4287 27.6657 26.1731V39.0554C27.6657 45.2068 23.6815 48.3717 18.981 48.3717C14.191 48.3717 11.9079 45.8309 11.9079 39.724V21.8938C11.9079 20.9132 12.1765 20.0662 13.2957 19.7096C14.0119 19.4868 15.6235 19.3976 16.3845 19.3085V18.9964H0V19.3085C0.671498 19.3976 2.23833 19.353 3.04412 19.7988C4.02899 20.3337 4.38712 21.0469 4.38712 22.0276V39.2783C4.38712 45.7863 8.86377 50.1547 17.1456 50.1547Z" fill="white"/>
<path d="M59.4247 49.5752H61.3945V26.2177C61.3945 22.9191 61.8421 20.9132 62.827 20.1554C63.9014 19.353 66.1845 19.4422 66.9007 19.3085V18.9964H54.9481V19.3085C55.7091 19.3976 58.3951 19.5313 59.1114 20.1554C60.0962 21.0023 60.6334 22.8299 60.6334 26.2622V39.5457L45.4576 18.9964H33.9078V19.3085C35.2061 19.353 36.9967 19.7542 37.9368 20.6903C38.9217 21.671 39.1455 23.1419 39.1455 24.5238V42.3094C39.1455 45.6972 38.7426 47.6585 37.713 48.4163C36.6386 49.2186 34.4003 48.9957 33.684 49.1295V49.4415H45.5024V49.1295C44.7413 49.0403 42.1449 49.0403 41.3838 48.4163C40.399 47.5693 39.9065 45.8309 39.9065 42.3094V23.3202L59.4247 49.5752Z" fill="white"/>
<path d="M67.666 49.4415H84.1848V49.1295C83.1552 49.0403 81.5436 48.9066 81.0064 48.7283C79.9768 48.3717 79.6634 47.5693 79.6634 46.5887V21.8938C79.6634 20.9132 79.932 20.0217 81.0064 19.7096C81.7674 19.4868 83.4238 19.3976 84.1848 19.3085V18.9964H67.666V19.3085C68.7851 19.3976 70.1281 19.5313 70.8444 19.7542C71.9188 20.1108 72.1874 20.9577 72.1874 21.9384V46.6778C72.1874 47.6585 71.9188 48.3717 70.8444 48.7283C70.3072 48.9066 68.9194 49.0403 67.666 49.1295V49.4415Z" fill="white"/>
<path d="M112.645 58C118.017 58 120.614 53.1858 121.151 49.8873L120.748 49.7535C120.301 52.0269 118.734 53.8099 115.824 53.8099C113.496 53.8099 111.437 52.4281 110.183 48.5054C111.974 47.6139 113.496 46.3658 114.705 44.9394C117.212 42.042 118.51 38.253 118.51 34.0184C118.51 29.0259 116.63 25.1033 113.675 22.3842C110.765 19.7096 106.781 18.2832 102.483 18.2832C97.9621 18.2832 93.9331 19.7542 91.068 22.6516C88.2477 25.5044 86.4123 29.5162 86.4123 34.5533C86.4123 39.412 88.2477 43.3347 91.1576 46.0538C94.0674 48.7729 98.0964 50.1547 102.304 50.1547C103.021 50.1547 103.692 50.1101 104.319 50.0656C104.946 55.4592 107.945 58 112.645 58ZM96.1714 44.2262C95.3208 41.6854 94.8284 37.7181 94.8284 34.3304C94.8284 24.6575 97.3801 18.8181 102.483 18.8181C108.258 18.8181 110.094 25.9502 110.094 34.1521C110.094 37.7181 109.825 42.1311 108.751 45.4297C107.587 41.3733 105.08 39.2783 102.036 39.2783C99.9318 39.2783 97.5592 41.0167 96.1714 44.2262ZM102.483 49.6198C99.7975 49.6198 97.8278 48.1042 96.3952 44.8502C97.2906 42.2648 99.0812 41.6854 100.379 41.6854C102.886 41.6854 103.916 45.2068 104.185 49.3969C103.647 49.5307 103.2 49.6198 102.483 49.6198Z" fill="white"/>
<path d="M137.37 50.1547C143.727 50.1547 148.651 46.4549 148.651 39.2783V26.1285C148.651 22.4287 149.009 20.9577 150.084 20.1554C151.024 19.4422 153.083 19.3976 154.157 19.3085V18.9964H142.249V19.3085C143.01 19.3976 145.607 19.4868 146.323 20.1108C147.308 20.9577 147.89 22.4287 147.89 26.1731V39.0554C147.89 45.2068 143.906 48.3717 139.205 48.3717C134.415 48.3717 132.132 45.8309 132.132 39.724V21.8938C132.132 20.9132 132.401 20.0662 133.52 19.7096C134.236 19.4868 135.848 19.3976 136.609 19.3085V18.9964H120.224V19.3085C120.896 19.3976 122.463 19.353 123.268 19.7988C124.253 20.3337 124.611 21.0469 124.611 22.0276V39.2783C124.611 45.7863 129.088 50.1547 137.37 50.1547Z" fill="white"/>
<path d="M154.938 49.4415H182.648L183.23 40.1252H182.827C181.932 41.7745 179.425 46.0538 177.59 47.8368C176.515 48.9066 174.053 48.9066 171.591 48.9066C167.517 48.9066 166.846 48.3717 166.846 45.1177V33.9292H169.756C172.128 33.9292 173.068 34.5533 173.695 35.2219C174.456 36.0243 175.71 38.7434 175.889 40.1252H176.381V27.4212H175.889C175.71 28.6247 174.635 31.1655 173.695 32.1016C173.113 32.6811 172.218 33.3943 169.756 33.3943H166.846V19.5313H170.382C171.77 19.5313 173.158 19.6205 174.232 19.7542C176.605 20.0662 179.783 24.925 180.455 26.9754H180.947V18.9964H154.938V19.3085C156.057 19.3976 157.311 19.5313 158.027 19.7542C159.101 20.1108 159.37 20.9577 159.37 21.9384V46.6778C159.37 47.6585 159.101 48.3717 158.027 48.7283C157.49 48.9066 156.191 49.0403 154.938 49.1295V49.4415Z" fill="white"/>
<path d="M209 13.1501V9.81352H199.884V0H196.237V9.81352H187.121V13.1501H196.237V23.3071H199.884V13.1501H209Z" fill="white"/>
</g>
</svg>
