	<svg
    width="229"
    height="50"
    viewBox="0 0 229 50"
    fill="none"
    xmlns="http://www.w3.org/2000/svg"
>
    <g opacity="0.8">
        <path
            d="M0 49.3328H16.8638V49.0215C15.7874 48.9325 14.1279 48.7546 13.5897 48.5322C12.603 48.0875 12.2442 47.3314 12.2442 46.3528V35.9896H14.2624C21.1246 35.9896 27.6279 33.1875 27.6279 26.5159C27.6279 21.3565 23.8156 18.9547 16.191 18.9547H0V19.266C0.762457 19.355 2.55648 19.4439 3.40863 19.7553C4.52989 20.2 4.75415 20.9562 4.75415 21.9347V46.3973C4.75415 47.3758 4.48504 48.1764 3.40863 48.5767C2.87043 48.7991 0.807308 48.977 0 49.0215V49.3328ZM12.2442 35.4114V19.5329H13.6794C18.0747 19.5329 19.5996 23.0911 19.5996 27.5833C19.5996 31.6308 17.9402 35.4114 13.0515 35.4114H12.2442Z"
            fill="white"
        />
        <path
            d="M54.8707 49.8666C60.163 49.8666 61.4188 47.02 61.4188 43.3284V41.9496H60.7909V43.2839C60.7909 45.7302 59.4454 46.9755 58.369 46.9755C57.5168 46.9755 56.6647 46.3084 56.3507 44.9296C55.9022 42.8391 55.7228 41.2379 55.0501 38.7917C54.1531 35.5893 50.879 34.4329 48.0982 34.2105V33.8991C52.673 33.0096 56.6647 30.7412 56.6647 25.8932C56.6647 21.0896 52.1348 18.9547 45.1381 18.9547H28.678V19.266C29.4405 19.355 31.2345 19.4439 32.0866 19.7997C33.2079 20.2445 33.4321 21.0451 33.4321 22.0236V46.3973C33.4321 47.4203 33.163 48.1764 32.0866 48.5767C31.5484 48.7991 29.4853 48.977 28.678 49.0215V49.3328H45.4072V49.0215C44.5999 48.9325 42.8059 48.7991 42.2677 48.5767C41.281 48.1319 40.9222 47.3758 40.9222 46.3973V34.5663H42.3574C46.3491 34.5663 47.4255 37.6352 48.0085 42.4833C48.6813 48.0875 50.9238 49.8666 54.8707 49.8666ZM40.9222 33.9436V19.5329H42.4022C46.4836 19.5329 48.5916 22.1571 48.5916 26.6493C48.5916 31.8976 45.5866 33.9436 41.6398 33.9436H40.9222Z"
            fill="white"
        />
        <path
            d="M62.2251 49.3328H78.7749V49.0215C77.7433 48.9325 76.1287 48.7991 75.5905 48.6212C74.5589 48.2654 74.245 47.4648 74.245 46.4863V21.8457C74.245 20.8672 74.5141 19.9777 75.5905 19.6663C76.353 19.4439 78.0124 19.355 78.7749 19.266V18.9547H62.2251V19.266C63.3463 19.355 64.6919 19.4884 65.4095 19.7108C66.4859 20.0666 66.755 20.9117 66.755 21.8902V46.5752C66.755 47.5537 66.4859 48.2654 65.4095 48.6212C64.8713 48.7991 63.4809 48.9325 62.2251 49.0215V49.3328Z"
            fill="white"
        />
        <path
            d="M96.0763 49.6887C97.7358 45.1519 105.764 25.4484 106.571 23.5359C107.244 21.9347 107.962 20.2445 109.262 19.7108C110.07 19.3995 110.653 19.355 111.639 19.3105V18.9547H101.01V19.3105C103.387 19.4439 105.988 19.6663 105.988 20.9117C105.988 21.9791 105.36 23.7583 104.822 25.226C104.06 27.3165 99.5746 39.014 98.274 41.8606C96.48 37.2794 92.1743 25.9821 90.6494 21.5789C90.5148 21.1786 90.3803 20.7338 90.4251 20.378C90.47 19.7997 91.6361 19.5774 94.8653 19.266V18.9547H78.4501V19.266C79.661 19.3995 80.1992 19.4884 80.9617 19.7108C81.9484 20.0221 82.4418 20.7338 83.1145 22.4239C84.8637 26.7827 90.9185 42.7502 93.5647 49.6887H96.0763Z"
            fill="white"
        />
        <path
            d="M105.989 49.3328H116.933V49.0215C115.408 48.8881 111.596 48.9325 111.596 47.3758C111.596 46.7976 111.865 45.7746 112.268 44.6182C112.448 44.0845 114.376 39.2364 114.645 38.5248H124.647L127.697 46.6197C127.787 46.8421 127.876 47.1979 127.876 47.5537C127.876 48.6657 124.647 48.8881 123.122 49.0215V49.3328H139.672V49.0215C138.91 48.9325 138.013 48.8436 137.295 48.4878C136.218 47.954 135.86 47.2869 135.501 46.3973C134.694 44.4848 126.89 23.7138 124.782 18.4654H122.27C120.745 22.335 112.537 41.5937 110.968 45.0185C110.295 46.5308 109.577 47.7761 108.456 48.4878C107.694 48.977 106.797 48.9325 105.989 49.0215V49.3328ZM115.004 37.6797L119.848 26.16L124.333 37.6797H115.004Z"
            fill="white"
        />
        <path
            d="M154.534 50C161.082 50 165.208 46.086 167.181 41.3714L166.688 41.149C164.401 45.5522 160.857 48.3099 156.238 48.3099C150.138 48.3099 147.537 43.017 147.537 33.7212C147.537 25.226 149.779 18.7768 155.386 18.7768C159.333 18.7768 163.055 22.3794 165.432 29.9406H165.97L165.791 18.5544H165.298L163.997 20.2C162.024 19.1771 158.66 18.1986 155.161 18.1986C145.922 18.1986 139.195 24.8257 139.195 34.4773C139.195 44.2624 146.012 50 154.534 50Z"
            fill="white"
        />
        <path
            d="M175.668 49.3328H193.115V49.0215C192.352 48.977 190.065 48.7991 189.527 48.5767C188.54 48.1319 188.181 47.2869 188.181 46.3528V40.3929C188.181 37.6352 188.316 36.4344 189.841 33.6323C192.128 29.4514 193.563 26.9162 195.806 23.2245C196.613 21.8902 197.465 20.6003 198.721 19.8887C199.349 19.5329 200.022 19.3995 201.098 19.266V18.9547H190.917V19.266C192.935 19.3995 195.626 19.6218 195.626 20.8227C195.626 21.2675 194.909 22.8242 193.384 25.6708C191.68 28.8287 189.303 33.0541 188.002 35.4114C186.298 32.6093 182.665 25.7597 182.171 24.8257C181.005 22.6463 180.198 20.7338 180.198 20.4224C180.198 19.5774 183.517 19.355 185.087 19.266V18.9547H167.55V19.266C168.402 19.3105 169.165 19.3995 169.972 19.8887C171.004 20.5114 171.99 21.7123 172.798 23.0466C173.739 24.6478 178.224 32.7427 179.301 34.6997C180.512 36.8791 180.691 37.5463 180.691 39.5033V46.4418C180.691 47.4203 180.377 48.2654 179.301 48.6657C178.718 48.8881 176.475 48.977 175.668 49.0215V49.3328Z"
            fill="white"
        />
        <path
            d="M229 13.1212V9.79196H219.867V0H216.213V9.79196H207.08V13.1212H216.213V23.2559H219.867V13.1212H229Z"
            fill="white"
        />
    </g>
</svg>