	<svg
							width="198"
							height="11"
							viewBox="0 0 198 11"
							fill="none"
							xmlns="http://www.w3.org/2000/svg"
						>
							<path
								opacity="0.6"
								d="M8.848 10L5.026 0.661999H4.032L0.21 10H1.134L2.058 7.704L7 7.704L7.924 10H8.848ZM6.734 6.976H2.324L4.522 1.516L6.734 6.976ZM12.9285 10C15.8265 10 17.6465 7.928 17.6465 5.338C17.6465 2.776 15.8265 0.661999 12.9285 0.661999L9.94645 0.661999L9.94645 10H12.9285ZM12.9285 9.272H10.7445L10.7445 1.39H12.9285C15.4065 1.39 16.8065 3.154 16.8065 5.338C16.8065 7.522 15.3925 9.272 12.9285 9.272ZM22.9504 10L26.7724 0.661999H25.8484L22.4464 9.104L19.0584 0.661999L18.1344 0.661999L21.9564 10H22.9504ZM34.7639 10L30.9419 0.661999H29.9479L26.1259 10H27.0499L27.9739 7.704H32.9159L33.8399 10L34.7639 10ZM32.6499 6.976H28.2399L30.4379 1.516L32.6499 6.976ZM43.3243 10V0.661999L42.5263 0.661999V8.572L36.6743 0.661999L35.8623 0.661999V10H36.6603V1.978L42.5403 10H43.3243ZM49.7534 10.168C51.2374 10.168 52.3294 9.524 53.1554 8.502L52.4834 8.082C51.8954 8.894 50.8734 9.44 49.7534 9.44C47.5554 9.44 45.8614 7.746 45.8614 5.338C45.8614 2.902 47.5554 1.236 49.7534 1.236C50.8734 1.236 51.8954 1.782 52.4834 2.594L53.1554 2.16C52.3574 1.166 51.2374 0.508 49.7534 0.508C47.1074 0.508 45.0214 2.468 45.0214 5.338C45.0214 8.208 47.1074 10.168 49.7534 10.168ZM60.4196 10V9.272H55.2956V5.576H60.3216V4.848L55.2956 4.848V1.39L60.4196 1.39V0.661999L54.4976 0.661999V10H60.4196ZM65.102 10C68 10 69.82 7.928 69.82 5.338C69.82 2.776 68 0.661999 65.102 0.661999L62.12 0.661999V10H65.102ZM65.102 9.272H62.918V1.39L65.102 1.39C67.58 1.39 68.98 3.154 68.98 5.338C68.98 7.522 67.566 9.272 65.102 9.272ZM77.8584 10C80.7564 10 82.5764 7.928 82.5764 5.338C82.5764 2.776 80.7564 0.661999 77.8584 0.661999L74.8764 0.661999V10L77.8584 10ZM77.8584 9.272H75.6744V1.39H77.8584C80.3364 1.39 81.7364 3.154 81.7364 5.338C81.7364 7.522 80.3224 9.272 77.8584 9.272ZM85.0877 10V0.661999H84.2897V10H85.0877ZM95.8629 10V0.661999H94.6589L91.4949 8.362L88.3169 0.661999L87.1269 0.661999V10H87.9249V1.754L91.3409 10H91.6489L95.0509 1.754V10H95.8629ZM106.643 10V0.661999H105.439L102.275 8.362L99.0975 0.661999H97.9075V10H98.7055V1.754L102.121 10H102.429L105.831 1.754V10H106.643ZM116.374 10L112.552 0.661999H111.558L107.736 10H108.66L109.584 7.704H114.526L115.45 10L116.374 10ZM114.26 6.976H109.85L112.048 1.516L114.26 6.976ZM121.392 10C123.058 10 124.066 9.034 124.066 7.48C124.066 6.374 123.24 5.338 122.246 5.184C123.086 5.016 123.884 4.218 123.884 3.042C123.884 1.572 122.876 0.661999 121.308 0.661999L117.472 0.661999V10H121.392ZM121.21 4.848L118.27 4.848V1.39L121.21 1.39C122.414 1.39 123.044 2.174 123.044 3.126C123.044 4.092 122.414 4.848 121.21 4.848ZM121.266 9.272H118.27V5.576H121.266C122.568 5.576 123.226 6.472 123.226 7.424C123.226 8.558 122.498 9.272 121.266 9.272ZM131.714 10V9.272L126.59 9.272V5.576L131.616 5.576V4.848H126.59V1.39H131.714V0.661999L125.792 0.661999V10L131.714 10ZM138.734 10V9.272H134.212V0.661999H133.414V10H138.734ZM151.582 10L154.242 0.661999H153.346L151.092 8.88L148.81 0.661999L148.082 0.661999L145.786 8.88L143.532 0.661999H142.636L145.31 10H146.206L148.446 1.978L150.686 10H151.582ZM156.191 10V0.661999L155.393 0.661999V10H156.191ZM165.692 10V0.661999H164.894V8.572L159.042 0.661999L158.23 0.661999V10H159.028V1.978L164.908 10H165.692ZM170.721 10C173.619 10 175.439 7.928 175.439 5.338C175.439 2.776 173.619 0.661999 170.721 0.661999L167.739 0.661999V10H170.721ZM170.721 9.272H168.537V1.39H170.721C173.199 1.39 174.599 3.154 174.599 5.338C174.599 7.522 173.185 9.272 170.721 9.272ZM181.338 10.168C184.068 10.168 185.874 8.068 185.874 5.338C185.874 2.608 184.068 0.508 181.338 0.508C178.594 0.508 176.802 2.608 176.802 5.338C176.802 8.068 178.594 10.168 181.338 10.168ZM181.338 9.44C179.07 9.44 177.642 7.69 177.642 5.338C177.642 2.958 179.07 1.236 181.338 1.236C183.578 1.236 185.034 2.958 185.034 5.338C185.034 7.69 183.578 9.44 181.338 9.44ZM195.34 10L198 0.661999H197.104L194.85 8.88L192.568 0.661999H191.84L189.544 8.88L187.29 0.661999H186.394L189.068 10H189.964L192.204 1.978L194.444 10H195.34Z"
								fill="white"
							/>
						</svg>