<svg width="130" height="11" viewBox="0 0 130 11" fill="none" xmlns="http://www.w3.org/2000/svg">
<path opacity="0.6" d="M6.602 10L3.9 6.08C5.286 6.024 6.49 5.086 6.49 3.392C6.49 1.684 5.258 0.661999 3.648 0.661999L0.162 0.661999L0.162 10H0.96L0.96 6.136H3.018L5.636 10L6.602 10ZM3.578 5.408H0.96L0.96 1.39L3.578 1.39C4.81 1.39 5.65 2.216 5.65 3.392C5.65 4.568 4.81 5.408 3.578 5.408ZM14.1165 10V9.272H8.9925V5.576H14.0185V4.848L8.9925 4.848L8.9925 1.39L14.1165 1.39V0.661999L8.1945 0.661999L8.1945 10H14.1165ZM24.5528 10L24.5528 0.661999H23.3488L20.1848 8.362L17.0068 0.661999H15.8168L15.8168 10H16.6148L16.6148 1.754L20.0308 10H20.3388L23.7408 1.754L23.7408 10H24.5528ZM30.7834 10.168C33.5134 10.168 35.3194 8.068 35.3194 5.338C35.3194 2.608 33.5134 0.508 30.7834 0.508C28.0394 0.508 26.2474 2.608 26.2474 5.338C26.2474 8.068 28.0394 10.168 30.7834 10.168ZM30.7834 9.44C28.5154 9.44 27.0874 7.69 27.0874 5.338C27.0874 2.958 28.5154 1.236 30.7834 1.236C33.0234 1.236 34.4794 2.958 34.4794 5.338C34.4794 7.69 33.0234 9.44 30.7834 9.44ZM39.7906 10V1.39H42.8426V0.661999L35.9266 0.661999V1.39L38.9786 1.39V10H39.7906ZM50.143 10V9.272L45.019 9.272V5.576L50.045 5.576V4.848H45.019V1.39H50.143V0.661999L44.221 0.661999V10L50.143 10ZM59.5684 10.168C61.0524 10.168 62.1444 9.524 62.9704 8.502L62.2984 8.082C61.7104 8.894 60.6884 9.44 59.5684 9.44C57.3704 9.44 55.6764 7.746 55.6764 5.338C55.6764 2.902 57.3704 1.236 59.5684 1.236C60.6884 1.236 61.7104 1.782 62.2984 2.594L62.9704 2.16C62.1724 1.166 61.0524 0.508 59.5684 0.508C56.9224 0.508 54.8364 2.468 54.8364 5.338C54.8364 8.208 56.9224 10.168 59.5684 10.168ZM71.8446 10V0.661999H71.0326V4.834L65.1106 4.834V0.661999H64.3126V10H65.1106V5.562H71.0326V10H71.8446ZM81.5624 10L77.7404 0.661999H76.7464L72.9244 10H73.8484L74.7724 7.704H79.7144L80.6384 10H81.5624ZM79.4484 6.976H75.0384L77.2364 1.516L79.4484 6.976ZM85.9727 10.168C88.3807 10.168 89.6127 8.726 89.6127 6.416V0.661999L88.8007 0.661999V6.402C88.8007 8.292 87.8207 9.44 85.9727 9.44C84.1387 9.44 83.1447 8.292 83.1447 6.402V0.661999L82.3327 0.661999V6.416C82.3327 8.712 83.5787 10.168 85.9727 10.168ZM92.4484 10V5.576H97.4744V4.848H92.4484V1.39H97.5724V0.661999L91.6504 0.661999V10H92.4484ZM99.7562 10V5.576L104.782 5.576V4.848H99.7562V1.39H104.88V0.661999L98.9582 0.661999V10H99.7562ZM112.188 10V9.272H107.064V5.576H112.09V4.848L107.064 4.848V1.39L112.188 1.39V0.661999L106.266 0.661999V10H112.188ZM117.528 10.168C119.936 10.168 121.168 8.726 121.168 6.416V0.661999L120.356 0.661999V6.402C120.356 8.292 119.376 9.44 117.528 9.44C115.694 9.44 114.7 8.292 114.7 6.402V0.661999H113.888V6.416C113.888 8.712 115.134 10.168 117.528 10.168ZM129.646 10L126.944 6.08C128.33 6.024 129.534 5.086 129.534 3.392C129.534 1.684 128.302 0.661999 126.692 0.661999L123.206 0.661999V10H124.004V6.136H126.062L128.68 10L129.646 10ZM126.622 5.408H124.004V1.39L126.622 1.39C127.854 1.39 128.694 2.216 128.694 3.392C128.694 4.568 127.854 5.408 126.622 5.408Z" fill="white"/>
</svg>
