<svg width="81" height="11" viewBox="0 0 81 11" fill="none" xmlns="http://www.w3.org/2000/svg">
<path opacity="0.6" d="M3.144 10C6.042 10 7.862 7.928 7.862 5.338C7.862 2.776 6.042 0.661999 3.144 0.661999L0.162 0.661999L0.162 10H3.144ZM3.144 9.272H0.96L0.96 1.39L3.144 1.39C5.622 1.39 7.022 3.154 7.022 5.338C7.022 7.522 5.608 9.272 3.144 9.272ZM10.3734 10L10.3734 0.661999H9.57536L9.57536 10H10.3734ZM16.7945 10.182C18.2645 10.182 19.5105 9.552 20.3365 8.628L20.3365 5.366L16.0105 5.366L16.0105 6.08L19.5385 6.08V8.32C19.0205 8.838 18.0405 9.454 16.7945 9.454C14.5965 9.454 12.9025 7.746 12.9025 5.338C12.9025 2.902 14.5965 1.236 16.7945 1.236C17.9845 1.236 19.0485 1.754 19.7065 2.538L20.3085 2.104C19.4545 1.124 18.3345 0.508 16.7945 0.508C14.1765 0.508 12.0625 2.454 12.0625 5.338C12.0625 8.222 14.1765 10.182 16.7945 10.182ZM22.8837 10L22.8837 0.661999H22.0857L22.0857 10H22.8837ZM28.1149 10L28.1149 1.39L31.1669 1.39V0.661999L24.2509 0.661999V1.39H27.3029L27.3029 10H28.1149ZM39.2605 10L35.4385 0.661999L34.4445 0.661999L30.6225 10H31.5465L32.4705 7.704L37.4125 7.704L38.3365 10H39.2605ZM37.1465 6.976L32.7365 6.976L34.9345 1.516L37.1465 6.976ZM45.679 10V9.272H41.157V0.661999H40.359V10H45.679ZM53.3747 10.168C55.8947 10.168 56.6927 8.726 56.6927 7.522C56.6927 4.036 51.0927 5.352 51.0927 2.958C51.0927 1.95 52.0307 1.236 53.2767 1.236C54.3267 1.236 55.2787 1.6 55.9507 2.412L56.4827 1.824C55.7547 0.998 54.7187 0.508 53.3187 0.508C51.6247 0.508 50.2527 1.474 50.2527 3C50.2527 6.262 55.8527 4.834 55.8527 7.578C55.8527 8.376 55.3067 9.44 53.3887 9.44C52.0587 9.44 51.0787 8.782 50.4767 8.082L49.9587 8.684C50.6727 9.552 51.8347 10.168 53.3747 10.168ZM64.2535 10V9.272L59.1295 9.272V5.576L64.1555 5.576V4.848L59.1295 4.848V1.39L64.2535 1.39V0.661999L58.3315 0.661999V10L64.2535 10ZM73.6398 10L69.8178 0.661999L68.8238 0.661999L65.0018 10H65.9258L66.8498 7.704H71.7918L72.7158 10H73.6398ZM71.5258 6.976H67.1158L69.3138 1.516L71.5258 6.976ZM80.0582 10V9.272H75.5362V0.661999H74.7382V10H80.0582Z" fill="white"/>
</svg>
