	<svg width="34" height="29" viewBox="0 0 34 29" fill="none" xmlns="http://www.w3.org/2000/svg">
							<path
								d="M9.818 1.172C8.04467 1.172 6.41067 1.78 4.916 2.996C3.44667 4.212 2.28133 5.87133 1.42 7.974C0.558667 10.0767 0.128 12.382 0.128 14.89C0.128 17.398 0.558667 19.7033 1.42 21.806C2.28133 23.9087 3.44667 25.568 4.916 26.784C6.41067 28 8.04467 28.608 9.818 28.608C11.5913 28.608 13.2127 28 14.682 26.784C16.1767 25.568 17.3547 23.9087 18.216 21.806C19.0773 19.7033 19.508 17.398 19.508 14.89C19.508 12.382 19.0773 10.0767 18.216 7.974C17.3547 5.87133 16.1767 4.212 14.682 2.996C13.2127 1.78 11.5913 1.172 9.818 1.172ZM3.776 14.89C3.776 10.406 4.27 7.07467 5.258 4.896C6.27133 2.71733 7.79133 1.628 9.818 1.628C11.8447 1.628 13.352 2.71733 14.34 4.896C15.3533 7.07467 15.86 10.406 15.86 14.89C15.86 19.374 15.3533 22.7053 14.34 24.884C13.352 27.0627 11.8447 28.152 9.818 28.152C7.79133 28.152 6.27133 27.0627 5.258 24.884C4.27 22.7053 3.776 19.374 3.776 14.89ZM23.1967 27.658V28L33.4947 28V27.658L29.9987 27.354L29.9987 0.944L29.8087 0.867998C29.074 2.084 28.1873 3.02133 27.1487 3.68C26.11 4.31333 24.78 4.73133 23.1587 4.934V5.2H27.0727L27.0727 27.354L23.1967 27.658Z"
								fill="white"
							/>
						</svg>