<svg width="22" height="19" viewBox="0 0 22 19" fill="none" xmlns="http://www.w3.org/2000/svg">
<path opacity="0.4" d="M6.464 1.056C5.344 1.056 4.312 1.44 3.368 2.208C2.44 2.976 1.704 4.024 1.16 5.352C0.616 6.68 0.344 8.136 0.344 9.72C0.344 11.304 0.616 12.76 1.16 14.088C1.704 15.416 2.44 16.464 3.368 17.232C4.312 18 5.344 18.384 6.464 18.384C7.584 18.384 8.608 18 9.536 17.232C10.48 16.464 11.224 15.416 11.768 14.088C12.312 12.76 12.584 11.304 12.584 9.72C12.584 8.136 12.312 6.68 11.768 5.352C11.224 4.024 10.48 2.976 9.536 2.208C8.608 1.44 7.584 1.056 6.464 1.056ZM2.648 9.72C2.648 6.888 2.96 4.784 3.584 3.408C4.224 2.032 5.184 1.344 6.464 1.344C7.744 1.344 8.696 2.032 9.32 3.408C9.96 4.784 10.28 6.888 10.28 9.72C10.28 12.552 9.96 14.656 9.32 16.032C8.696 17.408 7.744 18.096 6.464 18.096C5.184 18.096 4.224 17.408 3.584 16.032C2.96 14.656 2.648 12.552 2.648 9.72ZM14.9137 17.784V18H21.4177V17.784L19.2097 17.592L19.2097 0.912L19.0897 0.863999C18.6257 1.632 18.0657 2.224 17.4097 2.64C16.7537 3.04 15.9137 3.304 14.8897 3.432V3.6H17.3617L17.3617 17.592L14.9137 17.784Z" fill="white"/>
</svg>
