<svg width="161" height="28" viewBox="0 0 161 28" fill="none" xmlns="http://www.w3.org/2000/svg">
<path opacity="0.6" d="M5.026 10L8.848 0.661999L7.924 0.661999L4.522 9.104L1.134 0.661999H0.21L4.032 10H5.026ZM13.719 10.168C16.449 10.168 18.255 8.068 18.255 5.338C18.255 2.608 16.449 0.508 13.719 0.508C10.975 0.508 9.18302 2.608 9.18302 5.338C9.18302 8.068 10.975 10.168 13.719 10.168ZM13.719 9.44C11.451 9.44 10.023 7.69 10.023 5.338C10.023 2.958 11.451 1.236 13.719 1.236C15.959 1.236 17.415 2.958 17.415 5.338C17.415 7.69 15.959 9.44 13.719 9.44ZM20.6024 10L20.6024 0.661999H19.8044L19.8044 10L20.6024 10ZM26.8836 10.168C28.3676 10.168 29.4596 9.524 30.2856 8.502L29.6136 8.082C29.0256 8.894 28.0036 9.44 26.8836 9.44C24.6856 9.44 22.9916 7.746 22.9916 5.338C22.9916 2.902 24.6856 1.236 26.8836 1.236C28.0036 1.236 29.0256 1.782 29.6136 2.594L30.2856 2.16C29.4876 1.166 28.3676 0.508 26.8836 0.508C24.2376 0.508 22.1516 2.468 22.1516 5.338C22.1516 8.208 24.2376 10.168 26.8836 10.168ZM37.4099 10V9.272L32.2859 9.272V5.576L37.3119 5.576V4.848H32.2859V1.39H37.4099V0.661999L31.4879 0.661999L31.4879 10L37.4099 10ZM41.5882 6.948V6.276H38.2282V6.948H41.5882ZM43.5455 10V0.661999H42.7475V10H43.5455ZM52.9067 10V0.661999H52.1087V8.572L46.2567 0.661999L45.4447 0.661999V10H46.2427V1.978L52.1227 10H52.9067ZM55.6117 10V0.661999H54.8137V10H55.6117ZM60.7029 10V1.39H63.7549V0.661999L56.8389 0.661999V1.39L59.8909 1.39V10H60.7029ZM65.7912 10V0.661999H64.9932V10H65.7912ZM75.3764 10L71.5544 0.661999H70.5604L66.7384 10H67.6624L68.5864 7.704H73.5284L74.4524 10L75.3764 10ZM73.2624 6.976H68.8524L71.0504 1.516L73.2624 6.976ZM78.5562 10V1.39L81.6082 1.39V0.661999L74.6922 0.661999V1.39H77.7442V10H78.5562ZM88.7685 10V9.272H83.6445V5.576H88.6705V4.848L83.6445 4.848V1.39L88.7685 1.39V0.661999L82.8465 0.661999V10H88.7685ZM93.3109 10C96.2089 10 98.0289 7.928 98.0289 5.338C98.0289 2.776 96.2089 0.661999 93.3109 0.661999L90.3289 0.661999V10H93.3109ZM93.3109 9.272H91.1269V1.39L93.3109 1.39C95.7889 1.39 97.1889 3.154 97.1889 5.338C97.1889 7.522 95.7749 9.272 93.3109 9.272ZM4.354 27L4.354 18.39H7.406V17.662H0.49L0.49 18.39H3.542L3.542 27H4.354ZM12.4202 27.168C15.1502 27.168 16.9562 25.068 16.9562 22.338C16.9562 19.608 15.1502 17.508 12.4202 17.508C9.67619 17.508 7.88419 19.608 7.88419 22.338C7.88419 25.068 9.67619 27.168 12.4202 27.168ZM12.4202 26.44C10.1522 26.44 8.72419 24.69 8.72419 22.338C8.72419 19.958 10.1522 18.236 12.4202 18.236C14.6602 18.236 16.1162 19.958 16.1162 22.338C16.1162 24.69 14.6602 26.44 12.4202 26.44ZM22.1456 27.168C24.5536 27.168 25.7856 25.726 25.7856 23.416V17.662H24.9736V23.402C24.9736 25.292 23.9936 26.44 22.1456 26.44C20.3116 26.44 19.3176 25.292 19.3176 23.402V17.662H18.5056V23.416C18.5056 25.712 19.7516 27.168 22.1456 27.168ZM32.0653 27.168C33.5493 27.168 34.6413 26.524 35.4673 25.502L34.7953 25.082C34.2073 25.894 33.1852 26.44 32.0653 26.44C29.8672 26.44 28.1732 24.746 28.1732 22.338C28.1732 19.902 29.8672 18.236 32.0653 18.236C33.1852 18.236 34.2073 18.782 34.7953 19.594L35.4673 19.16C34.6693 18.166 33.5493 17.508 32.0653 17.508C29.4193 17.508 27.3332 19.468 27.3332 22.338C27.3332 25.208 29.4193 27.168 32.0653 27.168ZM44.2015 27V17.662H43.3895V21.834L37.4675 21.834V17.662H36.6695V27H37.4675V22.562L43.3895 22.562V27H44.2015ZM53.6783 27.168C55.1623 27.168 56.2543 26.524 57.0803 25.502L56.4083 25.082C55.8203 25.894 54.7983 26.44 53.6783 26.44C51.4803 26.44 49.7863 24.746 49.7863 22.338C49.7863 19.902 51.4803 18.236 53.6783 18.236C54.7983 18.236 55.8203 18.782 56.4083 19.594L57.0803 19.16C56.2823 18.166 55.1623 17.508 53.6783 17.508C51.0323 17.508 48.9463 19.468 48.9463 22.338C48.9463 25.208 51.0323 27.168 53.6783 27.168ZM62.4685 27.168C65.1985 27.168 67.0045 25.068 67.0045 22.338C67.0045 19.608 65.1985 17.508 62.4685 17.508C59.7245 17.508 57.9325 19.608 57.9325 22.338C57.9325 25.068 59.7245 27.168 62.4685 27.168ZM62.4685 26.44C60.2005 26.44 58.7725 24.69 58.7725 22.338C58.7725 19.958 60.2005 18.236 62.4685 18.236C64.7085 18.236 66.1645 19.958 66.1645 22.338C66.1645 24.69 64.7085 26.44 62.4685 26.44ZM76.016 27V17.662H75.218V25.572L69.366 17.662H68.554V27H69.352V18.978L75.232 27H76.016ZM81.115 27V18.39H84.167V17.662H77.251V18.39H80.303V27H81.115ZM91.8454 27L89.1434 23.08C90.5294 23.024 91.7334 22.086 91.7334 20.392C91.7334 18.684 90.5014 17.662 88.8914 17.662H85.4054V27H86.2034V23.136H88.2614L90.8794 27H91.8454ZM88.8214 22.408H86.2034V18.39H88.8214C90.0534 18.39 90.8934 19.216 90.8934 20.392C90.8934 21.568 90.0534 22.408 88.8214 22.408ZM97.4839 27.168C100.214 27.168 102.02 25.068 102.02 22.338C102.02 19.608 100.214 17.508 97.4839 17.508C94.7399 17.508 92.9479 19.608 92.9479 22.338C92.9479 25.068 94.7399 27.168 97.4839 27.168ZM97.4839 26.44C95.2159 26.44 93.7879 24.69 93.7879 22.338C93.7879 19.958 95.2159 18.236 97.4839 18.236C99.7239 18.236 101.18 19.958 101.18 22.338C101.18 24.69 99.7239 26.44 97.4839 26.44ZM108.889 27V26.272H104.367V17.662H103.569V27H108.889ZM116.305 27.168C118.825 27.168 119.623 25.726 119.623 24.522C119.623 21.036 114.023 22.352 114.023 19.958C114.023 18.95 114.961 18.236 116.207 18.236C117.257 18.236 118.209 18.6 118.881 19.412L119.413 18.824C118.685 17.998 117.649 17.508 116.249 17.508C114.555 17.508 113.183 18.474 113.183 20C113.183 23.262 118.783 21.834 118.783 24.578C118.783 25.376 118.237 26.44 116.319 26.44C114.989 26.44 114.009 25.782 113.407 25.082L112.889 25.684C113.603 26.552 114.765 27.168 116.305 27.168ZM124.555 27V23.01L128.265 17.662H127.299L124.149 22.254L120.999 17.662H120.033L123.743 23.01V27H124.555ZM131.844 27.168C134.364 27.168 135.162 25.726 135.162 24.522C135.162 21.036 129.562 22.352 129.562 19.958C129.562 18.95 130.5 18.236 131.746 18.236C132.796 18.236 133.748 18.6 134.42 19.412L134.952 18.824C134.224 17.998 133.188 17.508 131.788 17.508C130.094 17.508 128.722 18.474 128.722 20C128.722 23.262 134.322 21.834 134.322 24.578C134.322 25.376 133.776 26.44 131.858 26.44C130.528 26.44 129.548 25.782 128.946 25.082L128.428 25.684C129.142 26.552 130.304 27.168 131.844 27.168ZM139.812 27V18.39H142.864V17.662H135.948V18.39H139V27H139.812ZM150.024 27V26.272H144.9V22.576H149.926V21.848H144.9V18.39H150.024V17.662H144.102V27H150.024ZM160.32 27V17.662H159.116L155.952 25.362L152.774 17.662H151.584V27H152.382V18.754L155.798 27H156.106L159.508 18.754V27H160.32Z" fill="white"/>
</svg>
