<svg width="162" height="11" viewBox="0 0 162 11" fill="none" xmlns="http://www.w3.org/2000/svg">
<path opacity="0.6" d="M0.96 10L0.96 5.576L5.986 5.576V4.848L0.96 4.848L0.96 1.39L6.084 1.39V0.661999L0.162 0.661999L0.162 10H0.96ZM12.7899 10V9.272H8.26789L8.26789 0.661999L7.46989 0.661999L7.46989 10H12.7899ZM20.1666 10V9.272L15.0426 9.272L15.0426 5.576L20.0686 5.576V4.848L15.0426 4.848V1.39L20.1666 1.39V0.661999L14.2446 0.661999L14.2446 10L20.1666 10ZM29.4689 10L25.7169 5.198L29.2589 0.661999H28.2509L25.2129 4.624L22.1889 0.661999L21.1669 0.661999L24.7229 5.212L20.9569 10H21.9649L25.2129 5.786L28.4749 10H29.4689ZM31.4084 10V0.661999H30.6104L30.6104 10H31.4084ZM37.3675 10C39.0335 10 40.0415 9.034 40.0415 7.48C40.0415 6.374 39.2155 5.338 38.2215 5.184C39.0615 5.016 39.8595 4.218 39.8595 3.042C39.8595 1.572 38.8515 0.661999 37.2835 0.661999L33.4475 0.661999V10H37.3675ZM37.1855 4.848L34.2455 4.848V1.39L37.1855 1.39C38.3895 1.39 39.0195 2.174 39.0195 3.126C39.0195 4.092 38.3895 4.848 37.1855 4.848ZM37.2415 9.272H34.2455V5.576H37.2415C38.5435 5.576 39.2015 6.472 39.2015 7.424C39.2015 8.558 38.4735 9.272 37.2415 9.272ZM47.0872 10V9.272L42.5652 9.272V0.661999H41.7672V10L47.0872 10ZM54.4638 10V9.272H49.3398V5.576H54.3658V4.848L49.3398 4.848V1.39L54.4638 1.39V0.661999L48.5418 0.661999V10H54.4638ZM62.4892 10C65.3872 10 67.2072 7.928 67.2072 5.338C67.2072 2.776 65.3872 0.661999 62.4892 0.661999L59.5072 0.661999V10L62.4892 10ZM62.4892 9.272L60.3052 9.272V1.39H62.4892C64.9672 1.39 66.3672 3.154 66.3672 5.338C66.3672 7.522 64.9532 9.272 62.4892 9.272ZM69.7186 10V0.661999L68.9206 0.661999V10H69.7186ZM74.6558 10.168C77.1758 10.168 77.9738 8.726 77.9738 7.522C77.9738 4.036 72.3738 5.352 72.3738 2.958C72.3738 1.95 73.3118 1.236 74.5578 1.236C75.6078 1.236 76.5598 1.6 77.2318 2.412L77.7638 1.824C77.0358 0.998 75.9998 0.508 74.5998 0.508C72.9058 0.508 71.5338 1.474 71.5338 3C71.5338 6.262 77.1338 4.834 77.1338 7.578C77.1338 8.376 76.5878 9.44 74.6698 9.44C73.3398 9.44 72.3598 8.782 71.7578 8.082L71.2398 8.684C71.9538 9.552 73.1158 10.168 74.6558 10.168ZM80.4105 10V6.122H83.1125C84.8905 6.122 85.9265 4.862 85.9265 3.392C85.9265 1.922 84.9045 0.661999 83.1125 0.661999L79.6125 0.661999V10H80.4105ZM83.0285 5.394H80.4105V1.39H83.0285C84.2605 1.39 85.0865 2.216 85.0865 3.392C85.0865 4.568 84.2605 5.394 83.0285 5.394ZM92.6506 10V9.272H88.1286V0.661999H87.3306V10L92.6506 10ZM101.791 10L97.9693 0.661999H96.9753L93.1533 10H94.0773L95.0013 7.704H99.9433L100.867 10L101.791 10ZM99.6773 6.976H95.2673L97.4653 1.516L99.6773 6.976ZM105.598 10V6.01L109.308 0.661999H108.342L105.192 5.254L102.042 0.661999H101.076L104.786 6.01V10H105.598ZM116.644 10.168C119.164 10.168 119.962 8.726 119.962 7.522C119.962 4.036 114.362 5.352 114.362 2.958C114.362 1.95 115.3 1.236 116.546 1.236C117.596 1.236 118.548 1.6 119.22 2.412L119.752 1.824C119.024 0.998 117.988 0.508 116.588 0.508C114.894 0.508 113.522 1.474 113.522 3C113.522 6.262 119.122 4.834 119.122 7.578C119.122 8.376 118.576 9.44 116.658 9.44C115.328 9.44 114.348 8.782 113.746 8.082L113.228 8.684C113.942 9.552 115.104 10.168 116.644 10.168ZM125.034 10V6.01L128.744 0.661999H127.778L124.628 5.254L121.478 0.661999H120.512L124.222 6.01V10H125.034ZM132.463 10.168C134.983 10.168 135.781 8.726 135.781 7.522C135.781 4.036 130.181 5.352 130.181 2.958C130.181 1.95 131.119 1.236 132.365 1.236C133.415 1.236 134.367 1.6 135.039 2.412L135.571 1.824C134.843 0.998 133.807 0.508 132.407 0.508C130.713 0.508 129.341 1.474 129.341 3C129.341 6.262 134.941 4.834 134.941 7.578C134.941 8.376 134.395 9.44 132.477 9.44C131.147 9.44 130.167 8.782 129.565 8.082L129.047 8.684C129.761 9.552 130.923 10.168 132.463 10.168ZM140.57 10V1.39H143.622V0.661999L136.706 0.661999V1.39L139.758 1.39V10H140.57ZM150.923 10V9.272H145.799V5.576H150.825V4.848L145.799 4.848V1.39L150.923 1.39V0.661999L145.001 0.661999V10H150.923ZM161.359 10V0.661999H160.155L156.991 8.362L153.813 0.661999H152.623V10H153.421V1.754L156.837 10H157.145L160.547 1.754V10H161.359Z" fill="white"/>
</svg>
