<svg width="39" height="28" viewBox="0 0 39 28" fill="none" xmlns="http://www.w3.org/2000/svg">
<path d="M9.818 0.171999C8.04467 0.171999 6.41067 0.779999 4.916 1.996C3.44667 3.212 2.28133 4.87133 1.42 6.974C0.558667 9.07667 0.128 11.382 0.128 13.89C0.128 16.398 0.558667 18.7033 1.42 20.806C2.28133 22.9087 3.44667 24.568 4.916 25.784C6.41067 27 8.04467 27.608 9.818 27.608C11.5913 27.608 13.2127 27 14.682 25.784C16.1767 24.568 17.3547 22.9087 18.216 20.806C19.0773 18.7033 19.508 16.398 19.508 13.89C19.508 11.382 19.0773 9.07667 18.216 6.974C17.3547 4.87133 16.1767 3.212 14.682 1.996C13.2127 0.779999 11.5913 0.171999 9.818 0.171999ZM3.776 13.89C3.776 9.406 4.27 6.07467 5.258 3.896C6.27133 1.71733 7.79133 0.628 9.818 0.628C11.8447 0.628 13.352 1.71733 14.34 3.896C15.3533 6.07467 15.86 9.406 15.86 13.89C15.86 18.374 15.3533 21.7053 14.34 23.884C13.352 26.0627 11.8447 27.152 9.818 27.152C7.79133 27.152 6.27133 26.0627 5.258 23.884C4.27 21.7053 3.776 18.374 3.776 13.89ZM22.9687 26.658L27.0347 22.782C32.1773 17.8927 34.7487 13.092 34.7487 8.38C34.7487 6.404 34.318 4.89667 33.4567 3.858C32.6207 2.794 31.4173 2.262 29.8467 2.262C28.6053 2.262 27.4907 2.57867 26.5027 3.212C25.5147 3.82 24.7167 4.694 24.1087 5.834L23.7667 5.644C24.4253 3.99733 25.4513 2.68 26.8447 1.692C28.2633 0.678666 29.8087 0.171999 31.4807 0.171999C32.798 0.171999 33.976 0.488665 35.0147 1.122C36.0533 1.75533 36.864 2.62933 37.4467 3.744C38.0293 4.85867 38.3207 6.12533 38.3207 7.544C38.3207 9.26667 37.776 11.0273 36.6867 12.826C35.5973 14.5993 33.748 16.816 31.1387 19.476L26.5787 24.074H35.3567C36.0913 24.074 36.636 23.96 36.9907 23.732C37.3453 23.504 37.6113 23.0353 37.7887 22.326L38.5107 19.552L38.8147 19.628L37.9407 27L23.0827 27L22.9687 26.658Z" fill="white"/>
</svg>
