<svg width="25" height="18" viewBox="0 0 25 18" fill="none" xmlns="http://www.w3.org/2000/svg">
<path opacity="0.4" d="M6.464 0.0559993C5.344 0.0559993 4.312 0.439999 3.368 1.208C2.44 1.976 1.704 3.024 1.16 4.352C0.616 5.68 0.344 7.136 0.344 8.72C0.344 10.304 0.616 11.76 1.16 13.088C1.704 14.416 2.44 15.464 3.368 16.232C4.312 17 5.344 17.384 6.464 17.384C7.584 17.384 8.608 17 9.536 16.232C10.48 15.464 11.224 14.416 11.768 13.088C12.312 11.76 12.584 10.304 12.584 8.72C12.584 7.136 12.312 5.68 11.768 4.352C11.224 3.024 10.48 1.976 9.536 1.208C8.608 0.439999 7.584 0.0559993 6.464 0.0559993ZM2.648 8.72C2.648 5.888 2.96 3.784 3.584 2.408C4.224 1.032 5.184 0.344 6.464 0.344C7.744 0.344 8.696 1.032 9.32 2.408C9.96 3.784 10.28 5.888 10.28 8.72C10.28 11.552 9.96 13.656 9.32 15.032C8.696 16.408 7.744 17.096 6.464 17.096C5.184 17.096 4.224 16.408 3.584 15.032C2.96 13.656 2.648 11.552 2.648 8.72ZM14.7697 16.784L17.3377 14.336C20.5857 11.248 22.2097 8.216 22.2097 5.24C22.2097 3.992 21.9377 3.04 21.3937 2.384C20.8657 1.712 20.1057 1.376 19.1137 1.376C18.3297 1.376 17.6257 1.576 17.0017 1.976C16.3777 2.36 15.8737 2.912 15.4897 3.632L15.2737 3.512C15.6897 2.472 16.3377 1.64 17.2177 1.016C18.1137 0.375999 19.0897 0.0559993 20.1457 0.0559993C20.9777 0.0559993 21.7217 0.255999 22.3777 0.655999C23.0337 1.056 23.5457 1.608 23.9137 2.312C24.2817 3.016 24.4657 3.816 24.4657 4.712C24.4657 5.8 24.1217 6.912 23.4337 8.048C22.7457 9.168 21.5777 10.568 19.9297 12.248L17.0497 15.152H22.5937C23.0577 15.152 23.4017 15.08 23.6257 14.936C23.8497 14.792 24.0177 14.496 24.1297 14.048L24.5857 12.296L24.7777 12.344L24.2257 17H14.8417L14.7697 16.784Z" fill="white"/>
</svg>
