<svg width="88" height="11" viewBox="0 0 88 11" fill="none" xmlns="http://www.w3.org/2000/svg">
<path opacity="0.6" d="M8.898 10L8.898 0.661999H7.694L4.53 8.362L1.352 0.661999L0.162 0.661999L0.162 10H0.96L0.96 1.754L4.376 10H4.684L8.086 1.754V10H8.898ZM14.4425 10.168C16.8505 10.168 18.0825 8.726 18.0825 6.416L18.0825 0.661999L17.2705 0.661999L17.2705 6.402C17.2705 8.292 16.2905 9.44 14.4425 9.44C12.6085 9.44 11.6145 8.292 11.6145 6.402L11.6145 0.661999L10.8025 0.661999L10.8025 6.416C10.8025 8.712 12.0485 10.168 14.4425 10.168ZM22.8782 10.168C25.3982 10.168 26.1962 8.726 26.1962 7.522C26.1962 4.036 20.5962 5.352 20.5962 2.958C20.5962 1.95 21.5342 1.236 22.7802 1.236C23.8302 1.236 24.7822 1.6 25.4542 2.412L25.9862 1.824C25.2582 0.998 24.2222 0.508 22.8222 0.508C21.1282 0.508 19.7562 1.474 19.7562 3C19.7562 6.262 25.3562 4.834 25.3562 7.578C25.3562 8.376 24.8102 9.44 22.8922 9.44C21.5622 9.44 20.5822 8.782 19.9802 8.082L19.4622 8.684C20.1762 9.552 21.3382 10.168 22.8782 10.168ZM28.493 10L28.493 0.661999L27.695 0.661999L27.695 10H28.493ZM34.7742 10.168C36.2582 10.168 37.3502 9.524 38.1762 8.502L37.5042 8.082C36.9162 8.894 35.8942 9.44 34.7742 9.44C32.5762 9.44 30.8822 7.746 30.8822 5.338C30.8822 2.902 32.5762 1.236 34.7742 1.236C35.8942 1.236 36.9162 1.782 37.5042 2.594L38.1762 2.16C37.3782 1.166 36.2582 0.508 34.7742 0.508C32.1282 0.508 30.0422 2.468 30.0422 5.338C30.0422 8.208 32.1282 10.168 34.7742 10.168ZM45.4795 10.168C47.9995 10.168 48.7975 8.726 48.7975 7.522C48.7975 4.036 43.1975 5.352 43.1975 2.958C43.1975 1.95 44.1355 1.236 45.3815 1.236C46.4315 1.236 47.3835 1.6 48.0555 2.412L48.5875 1.824C47.8595 0.998 46.8235 0.508 45.4235 0.508C43.7295 0.508 42.3575 1.474 42.3575 3C42.3575 6.262 47.9575 4.834 47.9575 7.578C47.9575 8.376 47.4115 9.44 45.4935 9.44C44.1635 9.44 43.1835 8.782 42.5815 8.082L42.0635 8.684C42.7775 9.552 43.9395 10.168 45.4795 10.168ZM53.4472 10V1.39H56.4992V0.661999L49.5832 0.661999V1.39L52.6352 1.39V10H53.4472ZM61.3775 10.168C63.7855 10.168 65.0175 8.726 65.0175 6.416V0.661999H64.2055V6.402C64.2055 8.292 63.2255 9.44 61.3775 9.44C59.5435 9.44 58.5495 8.292 58.5495 6.402V0.661999H57.7375V6.416C57.7375 8.712 58.9835 10.168 61.3775 10.168ZM69.8972 10C72.7952 10 74.6152 7.928 74.6152 5.338C74.6152 2.776 72.7952 0.661999 69.8972 0.661999L66.9152 0.661999V10H69.8972ZM69.8972 9.272H67.7132V1.39H69.8972C72.3752 1.39 73.7752 3.154 73.7752 5.338C73.7752 7.522 72.3612 9.272 69.8972 9.272ZM76.9866 10V0.661999H76.1886V10H76.9866ZM83.0717 10.168C85.8017 10.168 87.6077 8.068 87.6077 5.338C87.6077 2.608 85.8017 0.508 83.0717 0.508C80.3277 0.508 78.5357 2.608 78.5357 5.338C78.5357 8.068 80.3277 10.168 83.0717 10.168ZM83.0717 9.44C80.8037 9.44 79.3757 7.69 79.3757 5.338C79.3757 2.958 80.8037 1.236 83.0717 1.236C85.3117 1.236 86.7677 2.958 86.7677 5.338C86.7677 7.69 85.3117 9.44 83.0717 9.44Z" fill="white"/>
</svg>
