<svg width="40" height="28" viewBox="0 0 40 28" fill="none" xmlns="http://www.w3.org/2000/svg">
<path d="M9.818 0.171999C8.04467 0.171999 6.41067 0.779999 4.916 1.996C3.44667 3.212 2.28133 4.87133 1.42 6.974C0.558667 9.07667 0.128 11.382 0.128 13.89C0.128 16.398 0.558667 18.7033 1.42 20.806C2.28133 22.9087 3.44667 24.568 4.916 25.784C6.41067 27 8.04467 27.608 9.818 27.608C11.5913 27.608 13.2127 27 14.682 25.784C16.1767 24.568 17.3547 22.9087 18.216 20.806C19.0773 18.7033 19.508 16.398 19.508 13.89C19.508 11.382 19.0773 9.07667 18.216 6.974C17.3547 4.87133 16.1767 3.212 14.682 1.996C13.2127 0.779999 11.5913 0.171999 9.818 0.171999ZM3.776 13.89C3.776 9.406 4.27 6.07467 5.258 3.896C6.27133 1.71733 7.79133 0.628 9.818 0.628C11.8447 0.628 13.352 1.71733 14.34 3.896C15.3533 6.07467 15.86 9.406 15.86 13.89C15.86 18.374 15.3533 21.7053 14.34 23.884C13.352 26.0627 11.8447 27.152 9.818 27.152C7.79133 27.152 6.27133 26.0627 5.258 23.884C4.27 21.7053 3.776 18.374 3.776 13.89ZM27.7947 13.624C29.6693 12.864 31.126 11.838 32.1647 10.546C33.2287 9.254 33.7607 7.848 33.7607 6.328C33.7607 5.06133 33.4187 4.07333 32.7347 3.364C32.0507 2.62933 31.126 2.262 29.9607 2.262C28.7953 2.262 27.744 2.61667 26.8067 3.326C25.8947 4.01 25.1473 4.98533 24.5647 6.252L24.2227 6.1C24.856 4.25067 25.8313 2.794 27.1487 1.73C28.4913 0.665999 30.0113 0.133999 31.7087 0.133999C33.2793 0.133999 34.5713 0.59 35.5847 1.502C36.598 2.38867 37.1047 3.52867 37.1047 4.922C37.1047 6.18867 36.674 7.40467 35.8127 8.57C34.9767 9.73533 33.786 10.7487 32.2407 11.61V11.762C33.5833 11.7873 34.7867 12.1293 35.8507 12.788C36.94 13.4467 37.7887 14.3333 38.3967 15.448C39.0047 16.5373 39.3087 17.7407 39.3087 19.058C39.3087 20.6033 38.9033 22.0347 38.0927 23.352C37.282 24.6693 36.1673 25.708 34.7487 26.468C33.3553 27.228 31.8353 27.608 30.1887 27.608C28.998 27.608 27.8707 27.4053 26.8067 27C25.768 26.5947 24.932 26.05 24.2987 25.366C23.6907 24.682 23.3867 23.9473 23.3867 23.162C23.3867 22.6047 23.5387 22.1613 23.8427 21.832C24.1467 21.5027 24.5393 21.338 25.0207 21.338C25.5527 21.338 25.996 21.5533 26.3507 21.984C26.7053 22.4147 27.098 23.2127 27.5287 24.378C27.8327 25.214 28.086 25.8093 28.2887 26.164C28.5167 26.5187 28.77 26.7593 29.0487 26.886C29.3273 27.0127 29.7453 27.076 30.3027 27.076C32.0253 27.076 33.3807 26.506 34.3687 25.366C35.382 24.226 35.8887 22.668 35.8887 20.692C35.8887 19.324 35.648 18.108 35.1667 17.044C34.6853 15.98 34.014 15.1567 33.1527 14.574C32.2913 13.966 31.3033 13.662 30.1887 13.662C29.3527 13.662 28.5927 13.776 27.9087 14.004L27.7947 13.624Z" fill="white"/>
</svg>
