<svg width="25" height="18" viewBox="0 0 25 18" fill="none" xmlns="http://www.w3.org/2000/svg">
<path opacity="0.4" d="M6.13197 0.0559993C5.01197 0.0559993 3.97997 0.439999 3.03597 1.208C2.10797 1.976 1.37197 3.024 0.827969 4.352C0.283969 5.68 0.0119688 7.136 0.0119688 8.72C0.0119688 10.304 0.283969 11.76 0.827969 13.088C1.37197 14.416 2.10797 15.464 3.03597 16.232C3.97997 17 5.01197 17.384 6.13197 17.384C7.25197 17.384 8.27597 17 9.20397 16.232C10.148 15.464 10.892 14.416 11.436 13.088C11.98 11.76 12.252 10.304 12.252 8.72C12.252 7.136 11.98 5.68 11.436 4.352C10.892 3.024 10.148 1.976 9.20397 1.208C8.27597 0.439999 7.25197 0.0559993 6.13197 0.0559993ZM2.31597 8.72C2.31597 5.888 2.62797 3.784 3.25197 2.408C3.89197 1.032 4.85197 0.344 6.13197 0.344C7.41197 0.344 8.36397 1.032 8.98797 2.408C9.62797 3.784 9.94797 5.888 9.94797 8.72C9.94797 11.552 9.62797 13.656 8.98797 15.032C8.36397 16.408 7.41197 17.096 6.13197 17.096C4.85197 17.096 3.89197 16.408 3.25197 15.032C2.62797 13.656 2.31597 11.552 2.31597 8.72ZM17.4857 8.552C18.6697 8.072 19.5897 7.424 20.2457 6.608C20.9177 5.792 21.2537 4.904 21.2537 3.944C21.2537 3.144 21.0377 2.52 20.6057 2.072C20.1737 1.608 19.5897 1.376 18.8537 1.376C18.1177 1.376 17.4537 1.6 16.8617 2.048C16.2857 2.48 15.8137 3.096 15.4457 3.896L15.2297 3.8C15.6297 2.632 16.2457 1.712 17.0777 1.04C17.9257 0.368 18.8857 0.0319996 19.9577 0.0319996C20.9497 0.0319996 21.7657 0.32 22.4057 0.896C23.0457 1.456 23.3657 2.176 23.3657 3.056C23.3657 3.856 23.0937 4.624 22.5497 5.36C22.0217 6.096 21.2697 6.736 20.2937 7.28V7.376C21.1417 7.392 21.9017 7.608 22.5737 8.024C23.2617 8.44 23.7977 9 24.1817 9.704C24.5657 10.392 24.7577 11.152 24.7577 11.984C24.7577 12.96 24.5017 13.864 23.9897 14.696C23.4777 15.528 22.7737 16.184 21.8777 16.664C20.9977 17.144 20.0377 17.384 18.9977 17.384C18.2457 17.384 17.5337 17.256 16.8617 17C16.2057 16.744 15.6777 16.4 15.2777 15.968C14.8937 15.536 14.7017 15.072 14.7017 14.576C14.7017 14.224 14.7977 13.944 14.9897 13.736C15.1817 13.528 15.4297 13.424 15.7337 13.424C16.0697 13.424 16.3497 13.56 16.5737 13.832C16.7977 14.104 17.0457 14.608 17.3177 15.344C17.5097 15.872 17.6697 16.248 17.7977 16.472C17.9417 16.696 18.1017 16.848 18.2777 16.928C18.4537 17.008 18.7177 17.048 19.0697 17.048C20.1577 17.048 21.0137 16.688 21.6377 15.968C22.2777 15.248 22.5977 14.264 22.5977 13.016C22.5977 12.152 22.4457 11.384 22.1417 10.712C21.8377 10.04 21.4137 9.52 20.8697 9.152C20.3257 8.768 19.7017 8.576 18.9977 8.576C18.4697 8.576 17.9897 8.648 17.5577 8.792L17.4857 8.552Z" fill="white"/>
</svg>
