<svg width="89" height="61" viewBox="0 0 89 61" fill="none" xmlns="http://www.w3.org/2000/svg">
<path opacity="0.24" d="M22.3036 46.128C18.9823 46.128 15.9743 45.5953 13.2796 44.53C10.585 43.402 8.29762 41.8353 6.41762 39.83C4.53762 37.8247 3.06496 35.4433 1.99962 32.686C0.996957 29.866 0.495624 26.764 0.495624 23.38C0.495624 20.184 1.02829 17.176 2.09362 14.356C3.22162 11.536 4.75696 9.092 6.69962 7.024C8.64229 4.956 10.9296 3.32667 13.5616 2.136C16.2563 0.882665 19.1703 0.255999 22.3036 0.255999C25.437 0.255999 28.3196 0.851332 30.9516 2.042C33.6463 3.17 35.965 4.768 37.9076 6.836C39.8503 8.84133 41.3543 11.254 42.4196 14.074C43.5476 16.894 44.1116 19.996 44.1116 23.38C44.1116 26.576 43.579 29.5527 42.5136 32.31C41.511 35.0673 40.0696 37.48 38.1896 39.548C36.3096 41.616 34.0223 43.2453 31.3276 44.436C28.633 45.564 25.625 46.128 22.3036 46.128ZM9.80162 23.38C9.80162 26.5133 10.115 29.2393 10.7416 31.558C11.431 33.814 12.3396 35.7253 13.4676 37.292C14.6583 38.8587 16.0056 40.018 17.5096 40.77C19.0763 41.522 20.737 41.898 22.4916 41.898C24.121 41.898 25.6563 41.522 27.0976 40.77C28.6016 40.018 29.9176 38.89 31.0456 37.386C32.1736 35.882 33.051 33.9707 33.6776 31.652C34.367 29.3333 34.7116 26.576 34.7116 23.38C34.7116 20.184 34.367 17.3953 33.6776 15.014C33.051 12.6327 32.1736 10.69 31.0456 9.186C29.9176 7.61933 28.6016 6.46 27.0976 5.708C25.5936 4.89333 23.9956 4.486 22.3036 4.486C20.6116 4.486 19.0136 4.862 17.5096 5.614C16.0056 6.366 14.6583 7.52533 13.4676 9.092C12.3396 10.596 11.431 12.5387 10.7416 14.92C10.115 17.3013 9.80162 20.1213 9.80162 23.38ZM88.4025 38.89V45H80.6005V60.98H72.1405V45H46.1965C46.0712 44.3733 46.0085 43.872 46.0085 43.496C46.0085 43.12 46.2592 42.6187 46.7605 41.992L77.4985 1.384C77.8118 0.945332 78.2505 0.725999 78.8145 0.725999H80.6005V38.89H88.4025ZM72.1405 14.638L53.7165 38.89H72.1405V14.638Z" fill="white"/>
</svg>
