<svg width="95" height="11" viewBox="0 0 95 11" fill="none" xmlns="http://www.w3.org/2000/svg">
<path opacity="0.6" d="M0.96 10L0.96 0.661999L0.162 0.661999L0.162 10H0.96ZM10.4612 10L10.4612 0.661999H9.66319L9.66319 8.572L3.81119 0.661999H2.99919L2.99919 10H3.79719L3.79719 1.978L9.67719 10H10.4612ZM15.7002 10L15.7002 1.39L18.7523 1.39V0.661999L11.8362 0.661999V1.39H14.8882L14.8882 10H15.7002ZM26.5706 10L23.8686 6.08C25.2546 6.024 26.4586 5.086 26.4586 3.392C26.4586 1.684 25.2266 0.661999 23.6166 0.661999L20.1306 0.661999L20.1306 10H20.9286V6.136H22.9866L25.6046 10H26.5706ZM23.5466 5.408H20.9286V1.39L23.5466 1.39C24.7786 1.39 25.6186 2.216 25.6186 3.392C25.6186 4.568 24.7786 5.408 23.5466 5.408ZM32.3491 10.168C35.0791 10.168 36.8851 8.068 36.8851 5.338C36.8851 2.608 35.0791 0.508 32.3491 0.508C29.6051 0.508 27.8131 2.608 27.8131 5.338C27.8131 8.068 29.6051 10.168 32.3491 10.168ZM32.3491 9.44C30.0811 9.44 28.6531 7.69 28.6531 5.338C28.6531 2.958 30.0811 1.236 32.3491 1.236C34.5891 1.236 36.0451 2.958 36.0451 5.338C36.0451 7.69 34.5891 9.44 32.3491 9.44ZM41.5565 10C44.4545 10 46.2745 7.928 46.2745 5.338C46.2745 2.776 44.4545 0.661999 41.5565 0.661999H38.5745V10H41.5565ZM41.5565 9.272H39.3725V1.39H41.5565C44.0345 1.39 45.4345 3.154 45.4345 5.338C45.4345 7.522 44.0205 9.272 41.5565 9.272ZM51.6279 10.168C54.0359 10.168 55.2679 8.726 55.2679 6.416V0.661999H54.4559V6.402C54.4559 8.292 53.4759 9.44 51.6279 9.44C49.7939 9.44 48.7999 8.292 48.7999 6.402V0.661999L47.9879 0.661999V6.416C47.9879 8.712 49.2339 10.168 51.6279 10.168ZM61.6875 10.168C63.1715 10.168 64.2635 9.524 65.0895 8.502L64.4175 8.082C63.8295 8.894 62.8075 9.44 61.6875 9.44C59.4895 9.44 57.7955 7.746 57.7955 5.338C57.7955 2.902 59.4895 1.236 61.6875 1.236C62.8075 1.236 63.8295 1.782 64.4175 2.594L65.0895 2.16C64.2915 1.166 63.1715 0.508 61.6875 0.508C59.0415 0.508 56.9555 2.468 56.9555 5.338C56.9555 8.208 59.0415 10.168 61.6875 10.168ZM69.6238 10V1.39L72.6758 1.39V0.661999L65.7598 0.661999V1.39H68.8118V10H69.6238ZM74.8521 10V0.661999H74.0541V10L74.8521 10ZM81.0773 10.168C83.8073 10.168 85.6133 8.068 85.6133 5.338C85.6133 2.608 83.8073 0.508 81.0773 0.508C78.3333 0.508 76.5413 2.608 76.5413 5.338C76.5413 8.068 78.3333 10.168 81.0773 10.168ZM81.0773 9.44C78.8093 9.44 77.3813 7.69 77.3813 5.338C77.3813 2.958 78.8093 1.236 81.0773 1.236C83.3173 1.236 84.7733 2.958 84.7733 5.338C84.7733 7.69 83.3173 9.44 81.0773 9.44ZM94.7647 10V0.661999H93.9667V8.572L88.1147 0.661999H87.3027V10L88.1007 10V1.978L93.9807 10H94.7647Z" fill="white"/>
</svg>
