<svg width="70" height="11" viewBox="0 0 70 11" fill="none" xmlns="http://www.w3.org/2000/svg">
<path opacity="0.6" d="M0.96 10L0.96 5.576L5.986 5.576V4.848L0.96 4.848L0.96 1.39L6.084 1.39V0.661999L0.162 0.661999L0.162 10H0.96ZM13.9099 10L11.2079 6.08C12.5939 6.024 13.7979 5.086 13.7979 3.392C13.7979 1.684 12.5659 0.661999 10.9559 0.661999L7.46989 0.661999L7.46989 10H8.26789V6.136H10.3259L12.9439 10H13.9099ZM10.8859 5.408H8.26789L8.26789 1.39L10.8859 1.39C12.1179 1.39 12.9579 2.216 12.9579 3.392C12.9579 4.568 12.1179 5.408 10.8859 5.408ZM19.1424 10.168C21.5504 10.168 22.7824 8.726 22.7824 6.416L22.7824 0.661999H21.9704L21.9704 6.402C21.9704 8.292 20.9904 9.44 19.1424 9.44C17.3084 9.44 16.3144 8.292 16.3144 6.402L16.3144 0.661999H15.5024L15.5024 6.416C15.5024 8.712 16.7484 10.168 19.1424 10.168ZM32.282 10V0.661999H31.484V8.572L25.632 0.661999H24.82L24.82 10H25.618L25.618 1.978L31.498 10H32.282ZM41.0351 10L36.6811 5.114L40.6571 0.661999H39.6351L35.1271 5.772V0.661999L34.3291 0.661999V10H35.1271V6.738L36.1631 5.604L40.0131 10H41.0351ZM49.5153 10C51.1813 10 52.1893 9.034 52.1893 7.48C52.1893 6.374 51.3633 5.338 50.3693 5.184C51.2093 5.016 52.0073 4.218 52.0073 3.042C52.0073 1.572 50.9993 0.661999 49.4313 0.661999L45.5953 0.661999V10L49.5153 10ZM49.3333 4.848H46.3933V1.39H49.3333C50.5373 1.39 51.1673 2.174 51.1673 3.126C51.1673 4.092 50.5373 4.848 49.3333 4.848ZM49.3893 9.272L46.3933 9.272V5.576L49.3893 5.576C50.6913 5.576 51.3493 6.472 51.3493 7.424C51.3493 8.558 50.6213 9.272 49.3893 9.272ZM61.6009 10L57.7789 0.661999H56.7849L52.9629 10H53.8869L54.8109 7.704H59.7529L60.6769 10H61.6009ZM59.4869 6.976H55.0769L57.2749 1.516L59.4869 6.976ZM69.1393 10L66.4373 6.08C67.8233 6.024 69.0273 5.086 69.0273 3.392C69.0273 1.684 67.7953 0.661999 66.1853 0.661999L62.6993 0.661999V10H63.4973V6.136H65.5553L68.1733 10H69.1393ZM66.1153 5.408H63.4973V1.39L66.1153 1.39C67.3473 1.39 68.1873 2.216 68.1873 3.392C68.1873 4.568 67.3473 5.408 66.1153 5.408Z" fill="white"/>
</svg>
