<svg width="115" height="11" viewBox="0 0 115 11" fill="none" xmlns="http://www.w3.org/2000/svg">
<path opacity="0.6" d="M8.898 10L8.898 0.661999H7.694L4.53 8.362L1.352 0.661999L0.162 0.661999L0.162 10H0.96L0.96 1.754L4.376 10H4.684L8.086 1.754V10H8.898ZM16.8645 10V9.272H11.7405V5.576H16.7665V4.848L11.7405 4.848L11.7405 1.39L16.8645 1.39V0.661999L10.9425 0.661999L10.9425 10H16.8645ZM27.3009 10L27.3009 0.661999H26.0969L22.9329 8.362L19.7549 0.661999H18.5649L18.5649 10H19.3629L19.3629 1.754L22.7789 10H23.0869L26.4889 1.754L26.4889 10H27.3009ZM33.5314 10.168C36.2614 10.168 38.0674 8.068 38.0674 5.338C38.0674 2.608 36.2614 0.508 33.5314 0.508C30.7874 0.508 28.9954 2.608 28.9954 5.338C28.9954 8.068 30.7874 10.168 33.5314 10.168ZM33.5314 9.44C31.2634 9.44 29.8354 7.69 29.8354 5.338C29.8354 2.958 31.2634 1.236 33.5314 1.236C35.7714 1.236 37.2274 2.958 37.2274 5.338C37.2274 7.69 35.7714 9.44 33.5314 9.44ZM46.1968 10L43.4948 6.08C44.8808 6.024 46.0848 5.086 46.0848 3.392C46.0848 1.684 44.8528 0.661999 43.2428 0.661999L39.7568 0.661999V10H40.5548V6.136H42.6128L45.2308 10H46.1968ZM43.1728 5.408H40.5548V1.39H43.1728C44.4048 1.39 45.2448 2.216 45.2448 3.392C45.2448 4.568 44.4048 5.408 43.1728 5.408ZM51.1543 10V6.01L54.8643 0.661999H53.8983L50.7483 5.254L47.5983 0.661999H46.6323L50.3423 6.01V10H51.1543ZM63.6836 10.182C65.1536 10.182 66.3996 9.552 67.2256 8.628V5.366H62.8996V6.08H66.4276V8.32C65.9096 8.838 64.9296 9.454 63.6836 9.454C61.4856 9.454 59.7916 7.746 59.7916 5.338C59.7916 2.902 61.4856 1.236 63.6836 1.236C64.8736 1.236 65.9376 1.754 66.5956 2.538L67.1976 2.104C66.3436 1.124 65.2236 0.508 63.6836 0.508C61.0656 0.508 58.9516 2.454 58.9516 5.338C58.9516 8.222 61.0656 10.182 63.6836 10.182ZM76.6334 10L72.8114 0.661999L71.8174 0.661999L67.9954 10H68.9194L69.8434 7.704L74.7854 7.704L75.7094 10H76.6334ZM74.5194 6.976L70.1094 6.976L72.3074 1.516L74.5194 6.976ZM83.0518 10V9.272H78.5298V0.661999H77.7318V10H83.0518ZM89.8265 10V9.272L85.3045 9.272V0.661999H84.5065V10L89.8265 10ZM97.2032 10V9.272H92.0792V5.576H97.1052V4.848H92.0792V1.39H97.2032V0.661999L91.2812 0.661999V10H97.2032ZM105.344 10L102.642 6.08C104.028 6.024 105.232 5.086 105.232 3.392C105.232 1.684 104 0.661999 102.39 0.661999L98.9036 0.661999V10H99.7016V6.136L101.76 6.136L104.378 10H105.344ZM102.32 5.408L99.7016 5.408V1.39H102.32C103.552 1.39 104.392 2.216 104.392 3.392C104.392 4.568 103.552 5.408 102.32 5.408ZM110.301 10V6.01L114.011 0.661999L113.045 0.661999L109.895 5.254L106.745 0.661999L105.779 0.661999L109.489 6.01V10H110.301Z" fill="white"/>
</svg>
